<svg xmlns="http://www.w3.org/2000/svg" xmlns:xlink="http://www.w3.org/1999/xlink" width="500" zoomAndPan="magnify" viewBox="0 0 375 374.999991" height="500" preserveAspectRatio="xMidYMid meet" version="1.0"><defs><g/></defs><g fill="#ff5757" fill-opacity="1"><g transform="translate(47.574622, 303.593199)"><g><path d="M 137.125 -80.3125 C 131.828125 -65.65625 120.453125 -56.5625 107.078125 -56.5625 L 105.8125 -56.5625 L 117.171875 -87.375 C 119.703125 -94.1875 120.96875 -101.015625 120.96875 -107.078125 C 120.96875 -131.828125 102.28125 -148.234375 80.046875 -148.234375 C 75.765625 -148.234375 71.96875 -147.734375 67.9375 -146.46875 L 84.34375 -193.6875 C 85.359375 -196.96875 86.109375 -199.75 86.109375 -202.53125 C 86.109375 -213.140625 77.53125 -219.203125 68.6875 -219.203125 C 60.859375 -219.203125 53.28125 -214.40625 49.75 -204.046875 C 31.5625 -151.015625 16.15625 -108.59375 0 -61.625 C -2.265625 -55.296875 -3.53125 -47.984375 -3.53125 -42.171875 C -3.53125 -14.640625 19.1875 0 44.453125 0 C 62.875 0 83.328125 -7.078125 94.1875 -27.265625 C 97.21875 -26.765625 100.5 -26.515625 103.796875 -26.515625 C 130.5625 -26.515625 157.578125 -42.421875 166.671875 -71.21875 C 167.171875 -72.734375 167.421875 -73.984375 167.421875 -75.25 C 167.421875 -83.59375 158.59375 -88.890625 150.25 -88.890625 C 144.703125 -88.890625 139.140625 -86.359375 137.125 -80.3125 Z M 62.125 -43.4375 L 61.625 -41.421875 C 58.59375 -33.078125 51.015625 -30.046875 44.453125 -30.046875 C 37.125 -30.046875 32.328125 -34.09375 32.328125 -41.15625 C 32.328125 -43.4375 32.578125 -45.953125 33.59375 -48.734375 C 40.40625 -67.671875 45.953125 -83.59375 52.53125 -102.78125 C 57.578125 -112.125 65.65625 -118.4375 72.984375 -118.4375 C 79.546875 -118.4375 84.09375 -114.140625 84.09375 -107.828125 C 84.09375 -106.0625 83.84375 -104.046875 83.078125 -102.015625 L 77.78125 -86.875 C 76.265625 -87.375 78.03125 -86.875 76.265625 -86.875 C 63.890625 -86.875 54.046875 -76.765625 54.046875 -63.890625 C 54.046875 -56.5625 56.8125 -49.5 62.125 -43.4375 Z M 62.125 -43.4375 "/></g></g></g><g fill="#ff5757" fill-opacity="1"><g transform="translate(173.57445, 303.593199)"><g><path d="M 105.046875 -68.1875 L 159.859375 -206.0625 C 168.1875 -235.609375 131.5625 -240.65625 122.734375 -214.65625 L 73.734375 -78.03125 C 65.15625 -57.828125 96.46875 -45.703125 105.046875 -68.1875 Z M 71.71875 -41.421875 C 60.359375 -41.421875 51.015625 -32.328125 51.015625 -20.703125 C 51.015625 -9.34375 60.359375 0 71.71875 0 C 83.328125 0 92.671875 -9.34375 92.671875 -20.703125 C 92.671875 -32.328125 83.328125 -41.421875 71.71875 -41.421875 Z M 71.71875 -41.421875 "/></g></g></g><g fill="#f00b51" fill-opacity="1"><g transform="translate(60.589336, 303.896513)"><g><path d="M 138.78125 -81.28125 C 133.40625 -66.453125 121.90625 -57.25 108.359375 -57.25 L 107.09375 -57.25 L 118.59375 -88.4375 C 121.140625 -95.328125 122.421875 -102.234375 122.421875 -108.359375 C 122.421875 -133.40625 103.515625 -150.03125 81.015625 -150.03125 C 76.671875 -150.03125 72.84375 -149.515625 68.75 -148.234375 L 85.359375 -196.03125 C 86.390625 -199.34375 87.15625 -202.15625 87.15625 -204.96875 C 87.15625 -215.703125 78.46875 -221.84375 69.515625 -221.84375 C 61.59375 -221.84375 53.921875 -216.984375 50.34375 -206.5 C 31.953125 -152.828125 16.359375 -109.90625 0 -62.359375 C -2.296875 -55.96875 -3.578125 -48.5625 -3.578125 -42.6875 C -3.578125 -14.828125 19.421875 0 44.984375 0 C 63.640625 0 84.34375 -7.15625 95.328125 -27.609375 C 98.390625 -27.09375 101.71875 -26.828125 105.046875 -26.828125 C 132.140625 -26.828125 159.484375 -42.9375 168.6875 -72.078125 C 169.1875 -73.609375 169.453125 -74.890625 169.453125 -76.15625 C 169.453125 -84.59375 160.5 -89.96875 152.0625 -89.96875 C 146.453125 -89.96875 140.828125 -87.40625 138.78125 -81.28125 Z M 62.875 -43.953125 L 62.359375 -41.921875 C 59.296875 -33.484375 51.625 -30.40625 44.984375 -30.40625 C 37.5625 -30.40625 32.71875 -34.5 32.71875 -41.65625 C 32.71875 -43.953125 32.96875 -46.515625 33.984375 -49.328125 C 40.890625 -68.5 46.515625 -84.59375 53.15625 -104.015625 C 58.265625 -113.484375 66.453125 -119.859375 73.859375 -119.859375 C 80.5 -119.859375 85.109375 -115.515625 85.109375 -109.125 C 85.109375 -107.34375 84.859375 -105.296875 84.078125 -103.25 L 78.71875 -87.921875 C 77.1875 -88.4375 78.96875 -87.921875 77.1875 -87.921875 C 64.65625 -87.921875 54.6875 -77.703125 54.6875 -64.65625 C 54.6875 -57.25 57.5 -50.09375 62.875 -43.953125 Z M 62.875 -43.953125 "/></g></g></g><g fill="#f00b51" fill-opacity="1"><g transform="translate(188.114895, 303.896513)"><g><path d="M 106.328125 -69 L 161.78125 -208.546875 C 170.21875 -238.453125 133.15625 -243.5625 124.203125 -217.234375 L 74.625 -78.96875 C 65.9375 -58.53125 97.625 -46.265625 106.328125 -69 Z M 72.578125 -41.921875 C 61.078125 -41.921875 51.625 -32.71875 51.625 -20.953125 C 51.625 -9.453125 61.078125 0 72.578125 0 C 84.34375 0 93.796875 -9.453125 93.796875 -20.953125 C 93.796875 -32.71875 84.34375 -41.921875 72.578125 -41.921875 Z M 72.578125 -41.921875 "/></g></g></g></svg>