<svg xmlns="http://www.w3.org/2000/svg" xmlns:xlink="http://www.w3.org/1999/xlink" width="485" zoomAndPan="magnify" viewBox="0 0 363.75 112.499997" height="150" preserveAspectRatio="xMidYMid meet" version="1.0"><defs><g/></defs><g fill="#ff5757" fill-opacity="1"><g transform="translate(5.811576, 98.648334)"><g><path d="M 49.546875 -29.015625 C 49.910156 -30.109375 50.546875 -30.894531 51.453125 -31.375 C 52.367188 -31.863281 53.3125 -32.109375 54.28125 -32.109375 C 55.800781 -32.109375 57.210938 -31.664062 58.515625 -30.78125 C 59.828125 -29.90625 60.484375 -28.707031 60.484375 -27.1875 C 60.484375 -26.757812 60.394531 -26.273438 60.21875 -25.734375 C 59.125 -22.265625 57.40625 -19.328125 55.0625 -16.921875 C 52.71875 -14.515625 50.007812 -12.6875 46.9375 -11.4375 C 43.863281 -10.195312 40.71875 -9.578125 37.5 -9.578125 C 36.28125 -9.578125 35.125 -9.671875 34.03125 -9.859375 C 32.082031 -6.203125 29.4375 -3.644531 26.09375 -2.1875 C 22.75 -0.726562 19.40625 0 16.0625 0 C 13.019531 0 10.175781 -0.578125 7.53125 -1.734375 C 4.882812 -2.890625 2.753906 -4.59375 1.140625 -6.84375 C -0.472656 -9.09375 -1.28125 -11.890625 -1.28125 -15.234375 C -1.28125 -17.546875 -0.851562 -19.890625 0 -22.265625 C 1.945312 -27.921875 3.878906 -33.46875 5.796875 -38.90625 C 7.710938 -44.351562 9.671875 -49.921875 11.671875 -55.609375 C 13.679688 -61.296875 15.78125 -67.332031 17.96875 -73.71875 C 18.644531 -75.601562 19.601562 -76.984375 20.84375 -77.859375 C 22.09375 -78.742188 23.414062 -79.1875 24.8125 -79.1875 C 26.394531 -79.1875 27.835938 -78.671875 29.140625 -77.640625 C 30.453125 -76.609375 31.109375 -75.117188 31.109375 -73.171875 C 31.109375 -72.679688 31.046875 -72.175781 30.921875 -71.65625 C 30.804688 -71.144531 30.65625 -70.585938 30.46875 -69.984375 L 24.546875 -52.921875 C 25.878906 -53.335938 27.335938 -53.546875 28.921875 -53.546875 C 31.597656 -53.546875 34.0625 -52.921875 36.3125 -51.671875 C 38.5625 -50.429688 40.351562 -48.703125 41.6875 -46.484375 C 43.03125 -44.265625 43.703125 -41.664062 43.703125 -38.6875 C 43.703125 -36.4375 43.242188 -34.0625 42.328125 -31.5625 L 38.234375 -20.4375 L 38.6875 -20.4375 C 41.113281 -20.4375 43.285156 -21.210938 45.203125 -22.765625 C 47.117188 -24.316406 48.566406 -26.398438 49.546875 -29.015625 Z M 22.4375 -15.6875 C 20.5 -17.9375 19.53125 -20.398438 19.53125 -23.078125 C 19.53125 -25.390625 20.300781 -27.351562 21.84375 -28.96875 C 23.394531 -30.582031 25.296875 -31.390625 27.546875 -31.390625 C 27.859375 -31.390625 27.96875 -31.414062 27.875 -31.46875 C 27.78125 -31.53125 27.851562 -31.503906 28.09375 -31.390625 L 30.015625 -36.859375 C 30.253906 -37.523438 30.375 -38.222656 30.375 -38.953125 C 30.375 -40.109375 30.007812 -41.035156 29.28125 -41.734375 C 28.550781 -42.429688 27.578125 -42.78125 26.359375 -42.78125 C 25.023438 -42.78125 23.6875 -42.265625 22.34375 -41.234375 C 21.007812 -40.203125 19.890625 -38.832031 18.984375 -37.125 C 17.828125 -33.664062 16.695312 -30.398438 15.59375 -27.328125 C 14.5 -24.253906 13.347656 -21.015625 12.140625 -17.609375 C 11.953125 -17.117188 11.828125 -16.644531 11.765625 -16.1875 C 11.703125 -15.738281 11.671875 -15.300781 11.671875 -14.875 C 11.671875 -13.59375 12.066406 -12.601562 12.859375 -11.90625 C 13.648438 -11.207031 14.71875 -10.859375 16.0625 -10.859375 C 17.269531 -10.859375 18.46875 -11.160156 19.65625 -11.765625 C 20.84375 -12.378906 21.710938 -13.445312 22.265625 -14.96875 Z M 22.4375 -15.6875 "/></g></g></g><g fill="#ff5757" fill-opacity="1"><g transform="translate(51.337667, 98.648334)"><g><path d="M 57.203125 -30.84375 C 58.546875 -30.84375 59.71875 -30.445312 60.71875 -29.65625 C 61.71875 -28.863281 62.21875 -27.675781 62.21875 -26.09375 C 62.21875 -25.300781 62.003906 -24.296875 61.578125 -23.078125 C 61.148438 -21.859375 60.601562 -20.367188 59.9375 -18.609375 C 57.988281 -13.679688 55.660156 -9.878906 52.953125 -7.203125 C 50.253906 -4.523438 47.457031 -2.65625 44.5625 -1.59375 C 41.675781 -0.53125 38.957031 0 36.40625 0 C 35.488281 0 34.253906 -0.117188 32.703125 -0.359375 C 31.148438 -0.609375 29.597656 -1.082031 28.046875 -1.78125 C 26.503906 -2.476562 25.242188 -3.523438 24.265625 -4.921875 C 22.566406 -3.398438 20.664062 -2.195312 18.5625 -1.3125 C 16.46875 -0.4375 14.351562 0 12.21875 0 C 9.550781 0 7.148438 -0.617188 5.015625 -1.859375 C 2.890625 -3.109375 1.203125 -4.78125 -0.046875 -6.875 C -1.296875 -8.976562 -1.921875 -11.28125 -1.921875 -13.78125 C -1.921875 -14.625 -1.828125 -15.457031 -1.640625 -16.28125 C -1.460938 -17.101562 -1.25 -17.910156 -1 -18.703125 L 7.578125 -43.25 C 8.785156 -46.769531 10.847656 -49.363281 13.765625 -51.03125 C 16.691406 -52.707031 19.644531 -53.546875 22.625 -53.546875 C 24.9375 -53.546875 26.957031 -53.269531 28.6875 -52.71875 C 30.425781 -52.175781 31.78125 -51.601562 32.75 -51 C 33.476562 -52.15625 34.453125 -53.019531 35.671875 -53.59375 C 36.890625 -54.175781 38.132812 -54.46875 39.40625 -54.46875 C 41.113281 -54.46875 42.648438 -53.945312 44.015625 -52.90625 C 45.390625 -51.875 46.078125 -50.359375 46.078125 -48.359375 C 46.078125 -47.441406 45.894531 -46.4375 45.53125 -45.34375 L 35.3125 -15.78125 C 35 -14.6875 34.84375 -13.804688 34.84375 -13.140625 C 34.84375 -11.617188 35.664062 -10.859375 37.3125 -10.859375 C 38.707031 -10.859375 40.210938 -11.328125 41.828125 -12.265625 C 43.441406 -13.210938 45.039062 -14.78125 46.625 -16.96875 C 48.207031 -19.15625 49.570312 -22.101562 50.71875 -25.8125 C 51.269531 -27.582031 52.164062 -28.863281 53.40625 -29.65625 C 54.65625 -30.445312 55.921875 -30.84375 57.203125 -30.84375 Z M 27.09375 -31.75 C 27.820312 -34.0625 28.1875 -35.851562 28.1875 -37.125 C 28.1875 -38.707031 27.789062 -39.910156 27 -40.734375 C 26.207031 -41.554688 25.390625 -41.96875 24.546875 -41.96875 C 23.816406 -41.96875 22.890625 -41.617188 21.765625 -40.921875 C 20.640625 -40.222656 19.648438 -38.472656 18.796875 -35.671875 L 12.953125 -17.328125 C 12.828125 -16.910156 12.703125 -16.441406 12.578125 -15.921875 C 12.460938 -15.398438 12.40625 -14.835938 12.40625 -14.234375 C 12.40625 -11.984375 13.410156 -10.859375 15.421875 -10.859375 C 16.390625 -10.859375 17.601562 -11.328125 19.0625 -12.265625 C 20.519531 -13.210938 21.738281 -15.175781 22.71875 -18.15625 Z M 27.09375 -31.75 "/></g></g></g><g fill="#ff5757" fill-opacity="1"><g transform="translate(99.235867, 98.648334)"><g><path d="M 48.453125 -25.8125 C 48.929688 -27.15625 49.671875 -28.113281 50.671875 -28.6875 C 51.679688 -29.269531 52.734375 -29.5625 53.828125 -29.5625 C 55.285156 -29.5625 56.640625 -29.132812 57.890625 -28.28125 C 59.140625 -27.425781 59.765625 -26.332031 59.765625 -25 C 59.765625 -24.8125 59.765625 -24.609375 59.765625 -24.390625 C 59.765625 -24.179688 59.703125 -23.988281 59.578125 -23.8125 C 57.453125 -17.664062 54.53125 -12.8125 50.8125 -9.25 C 47.101562 -5.695312 42.875 -3.160156 38.125 -1.640625 C 33.382812 -0.117188 28.367188 0.640625 23.078125 0.640625 C 17.722656 0.640625 13.175781 -0.0546875 9.4375 -1.453125 C 5.695312 -2.859375 2.851562 -4.757812 0.90625 -7.15625 C -1.03125 -9.5625 -2 -12.253906 -2 -15.234375 C -2 -17.179688 -1.664062 -19.15625 -1 -21.15625 C -0.332031 -23.164062 0.679688 -24.945312 2.046875 -26.5 C 3.421875 -28.050781 5.109375 -29.070312 7.109375 -29.5625 C 8.941406 -32.96875 10.800781 -36.414062 12.6875 -39.90625 C 14.570312 -43.40625 16.394531 -46.890625 18.15625 -50.359375 C 19.007812 -52.117188 20.238281 -53.441406 21.84375 -54.328125 C 23.457031 -55.210938 25.117188 -55.65625 26.828125 -55.65625 C 29.140625 -55.65625 30.976562 -54.878906 32.34375 -53.328125 C 33.707031 -51.773438 34.390625 -50.023438 34.390625 -48.078125 C 34.390625 -46.742188 33.945312 -45.421875 33.0625 -44.109375 C 32.1875 -42.804688 31.109375 -41.878906 29.828125 -41.328125 C 30.015625 -39.929688 30.503906 -38.472656 31.296875 -36.953125 C 32.085938 -35.429688 32.9375 -33.878906 33.84375 -32.296875 C 35.125 -30.171875 36.34375 -27.875 37.5 -25.40625 C 38.65625 -22.945312 39.234375 -20.378906 39.234375 -17.703125 C 39.234375 -17.085938 39.203125 -16.503906 39.140625 -15.953125 C 39.078125 -15.410156 38.984375 -14.835938 38.859375 -14.234375 C 40.992188 -15.453125 42.847656 -17.019531 44.421875 -18.9375 C 46.003906 -20.851562 47.347656 -23.144531 48.453125 -25.8125 Z M 19.53125 -28.28125 C 20.3125 -27.488281 20.882812 -26.585938 21.25 -25.578125 C 21.625 -24.578125 21.8125 -23.5625 21.8125 -22.53125 C 21.8125 -20.28125 21.078125 -18.226562 19.609375 -16.375 C 18.148438 -14.519531 16.082031 -13.59375 13.40625 -13.59375 C 13.101562 -13.59375 12.769531 -13.609375 12.40625 -13.640625 C 12.039062 -13.671875 11.675781 -13.71875 11.3125 -13.78125 C 11.800781 -12.625 12.679688 -11.707031 13.953125 -11.03125 C 15.234375 -10.363281 16.632812 -10.03125 18.15625 -10.03125 C 20.59375 -10.15625 22.382812 -10.992188 23.53125 -12.546875 C 24.6875 -14.097656 25.265625 -15.9375 25.265625 -18.0625 C 25.265625 -20.1875 24.789062 -22.296875 23.84375 -24.390625 C 22.90625 -26.492188 21.738281 -28.367188 20.34375 -30.015625 Z M 19.53125 -28.28125 "/></g></g></g><g fill="#ff5757" fill-opacity="1"><g transform="translate(144.761958, 98.648334)"><g><path d="M 52 -26.453125 C 52.488281 -27.972656 53.265625 -29.066406 54.328125 -29.734375 C 55.390625 -30.410156 56.5 -30.75 57.65625 -30.75 C 59.113281 -30.75 60.421875 -30.320312 61.578125 -29.46875 C 62.734375 -28.613281 63.3125 -27.488281 63.3125 -26.09375 C 63.3125 -25.601562 63.222656 -25.023438 63.046875 -24.359375 C 60.859375 -18.035156 58.363281 -13.109375 55.5625 -9.578125 C 52.757812 -6.046875 49.835938 -3.566406 46.796875 -2.140625 C 43.753906 -0.710938 40.773438 0 37.859375 0 C 35.304688 0 32.875 -0.484375 30.5625 -1.453125 C 28.25 -2.429688 26.378906 -3.894531 24.953125 -5.84375 C 23.523438 -7.789062 22.8125 -10.191406 22.8125 -13.046875 C 22.8125 -14.867188 23.175781 -16.875 23.90625 -19.0625 L 30.5625 -38.140625 C 30.800781 -38.617188 30.921875 -39.164062 30.921875 -39.78125 C 30.921875 -40.632812 30.628906 -41.347656 30.046875 -41.921875 C 29.472656 -42.492188 28.734375 -42.78125 27.828125 -42.78125 C 26.429688 -42.78125 25.015625 -42.203125 23.578125 -41.046875 C 22.148438 -39.898438 20.953125 -38.441406 19.984375 -36.671875 L 8.9375 -5.46875 C 8.269531 -3.582031 7.3125 -2.195312 6.0625 -1.3125 C 4.820312 -0.4375 3.53125 0 2.1875 0 C 0.664062 0 -0.726562 -0.59375 -2 -1.78125 C -3.28125 -2.96875 -3.921875 -4.59375 -3.921875 -6.65625 C -3.921875 -7.8125 -3.707031 -9 -3.28125 -10.21875 L 18.609375 -72.25 C 19.460938 -74.6875 20.484375 -76.453125 21.671875 -77.546875 C 22.859375 -78.640625 24.332031 -79.1875 26.09375 -79.1875 C 27.613281 -79.1875 28.992188 -78.671875 30.234375 -77.640625 C 31.484375 -76.609375 32.109375 -75.117188 32.109375 -73.171875 C 32.109375 -72.554688 32.015625 -71.914062 31.828125 -71.25 C 31.648438 -70.582031 31.441406 -69.882812 31.203125 -69.15625 L 25.453125 -52.375 C 27.273438 -53.15625 29.222656 -53.546875 31.296875 -53.546875 C 33.785156 -53.546875 36.019531 -52.96875 38 -51.8125 C 39.976562 -50.664062 41.546875 -49.117188 42.703125 -47.171875 C 43.859375 -45.222656 44.4375 -43.03125 44.4375 -40.59375 C 44.4375 -39.800781 44.375 -38.992188 44.25 -38.171875 C 44.125 -37.359375 43.910156 -36.523438 43.609375 -35.671875 L 36.125 -14.421875 C 35.945312 -14.054688 35.859375 -13.660156 35.859375 -13.234375 C 35.859375 -12.554688 36.113281 -11.988281 36.625 -11.53125 C 37.144531 -11.082031 37.832031 -10.859375 38.6875 -10.859375 C 40.75 -10.859375 42.984375 -12.085938 45.390625 -14.546875 C 47.796875 -17.015625 50 -20.984375 52 -26.453125 Z M 52 -26.453125 "/></g></g></g><g fill="#ff5757" fill-opacity="1"><g transform="translate(193.663731, 98.648334)"><g><path d="M 80.828125 -30.5625 C 82.234375 -30.5625 83.484375 -30.164062 84.578125 -29.375 C 85.671875 -28.582031 86.21875 -27.457031 86.21875 -26 C 86.21875 -25.695312 86.1875 -25.378906 86.125 -25.046875 C 86.0625 -24.710938 85.972656 -24.390625 85.859375 -24.078125 C 83.785156 -18.003906 81.332031 -13.21875 78.5 -9.71875 C 75.675781 -6.21875 72.726562 -3.722656 69.65625 -2.234375 C 66.582031 -0.742188 63.523438 0 60.484375 0 C 57.804688 0 55.34375 -0.5 53.09375 -1.5 C 50.84375 -2.507812 49.035156 -3.984375 47.671875 -5.921875 C 46.304688 -7.867188 45.625 -10.210938 45.625 -12.953125 C 45.625 -14.960938 45.988281 -17 46.71875 -19.0625 L 53.640625 -37.953125 C 53.890625 -38.679688 54.015625 -39.347656 54.015625 -39.953125 C 54.015625 -40.804688 53.738281 -41.488281 53.1875 -42 C 52.644531 -42.519531 51.945312 -42.78125 51.09375 -42.78125 C 49.570312 -42.78125 48.050781 -42.125 46.53125 -40.8125 C 45.007812 -39.507812 43.820312 -37.707031 42.96875 -35.40625 L 32.484375 -5.75 C 31.804688 -3.800781 30.738281 -2.351562 29.28125 -1.40625 C 27.820312 -0.46875 26.332031 0 24.8125 0 C 23.289062 0 21.9375 -0.46875 20.75 -1.40625 C 19.570312 -2.351562 18.984375 -3.679688 18.984375 -5.390625 C 18.984375 -6.359375 19.222656 -7.484375 19.703125 -8.765625 L 30.375 -38.40625 C 30.625 -38.957031 30.75 -39.535156 30.75 -40.140625 C 30.75 -40.992188 30.457031 -41.644531 29.875 -42.09375 C 29.300781 -42.550781 28.554688 -42.78125 27.640625 -42.78125 C 26.304688 -42.78125 24.953125 -42.25 23.578125 -41.1875 C 22.210938 -40.125 21.046875 -38.617188 20.078125 -36.671875 L 9.21875 -5.46875 C 8.601562 -3.644531 7.597656 -2.273438 6.203125 -1.359375 C 4.804688 -0.453125 3.316406 0 1.734375 0 C 0.148438 0 -1.257812 -0.453125 -2.5 -1.359375 C -3.75 -2.273438 -4.375 -3.585938 -4.375 -5.296875 C -4.375 -6.023438 -4.253906 -6.753906 -4.015625 -7.484375 L 10.578125 -49.546875 C 11.128906 -50.878906 12.054688 -51.878906 13.359375 -52.546875 C 14.671875 -53.210938 16.023438 -53.546875 17.421875 -53.546875 C 18.460938 -53.546875 19.4375 -53.363281 20.34375 -53 C 21.257812 -52.632812 21.957031 -52.117188 22.4375 -51.453125 C 23.289062 -51.941406 24.296875 -52.410156 25.453125 -52.859375 C 26.609375 -53.316406 28.128906 -53.546875 30.015625 -53.546875 C 32.691406 -53.546875 34.820312 -53.117188 36.40625 -52.265625 C 37.988281 -51.421875 39.265625 -50.453125 40.234375 -49.359375 C 42.359375 -51.054688 44.515625 -52.175781 46.703125 -52.71875 C 48.898438 -53.269531 50.816406 -53.546875 52.453125 -53.546875 C 55.253906 -53.546875 57.796875 -53.03125 60.078125 -52 C 62.359375 -50.96875 64.179688 -49.523438 65.546875 -47.671875 C 66.921875 -45.816406 67.609375 -43.582031 67.609375 -40.96875 C 67.609375 -40.175781 67.53125 -39.335938 67.375 -38.453125 C 67.226562 -37.566406 67 -36.703125 66.6875 -35.859375 L 58.9375 -14.59375 C 58.875 -14.414062 58.828125 -14.21875 58.796875 -14 C 58.765625 -13.789062 58.75 -13.5625 58.75 -13.3125 C 58.75 -12.644531 58.976562 -12.066406 59.4375 -11.578125 C 59.894531 -11.097656 60.578125 -10.859375 61.484375 -10.859375 C 63.617188 -10.859375 65.867188 -12.054688 68.234375 -14.453125 C 70.609375 -16.859375 72.800781 -20.800781 74.8125 -26.28125 C 75.300781 -27.738281 76.125 -28.816406 77.28125 -29.515625 C 78.4375 -30.210938 79.617188 -30.5625 80.828125 -30.5625 Z M 80.828125 -30.5625 "/></g></g></g><g fill="#ff5757" fill-opacity="1"><g transform="translate(265.374169, 98.648334)"><g><path d="M 50.90625 -26.28125 C 51.394531 -27.800781 52.234375 -28.910156 53.421875 -29.609375 C 54.609375 -30.304688 55.804688 -30.65625 57.015625 -30.65625 C 58.421875 -30.65625 59.671875 -30.273438 60.765625 -29.515625 C 61.859375 -28.753906 62.40625 -27.644531 62.40625 -26.1875 C 62.40625 -25.570312 62.253906 -24.867188 61.953125 -24.078125 C 59.878906 -18.179688 57.441406 -13.46875 54.640625 -9.9375 C 51.847656 -6.414062 48.882812 -3.878906 45.75 -2.328125 C 42.625 -0.773438 39.507812 0 36.40625 0 C 33.851562 0 31.445312 -0.484375 29.1875 -1.453125 C 26.9375 -2.429688 25.128906 -3.878906 23.765625 -5.796875 C 22.398438 -7.710938 21.71875 -10.066406 21.71875 -12.859375 C 21.71875 -13.835938 21.820312 -14.828125 22.03125 -15.828125 C 22.25 -16.828125 22.539062 -17.847656 22.90625 -18.890625 L 29.5625 -37.6875 C 29.863281 -38.59375 30.015625 -39.347656 30.015625 -39.953125 C 30.015625 -40.804688 29.753906 -41.488281 29.234375 -42 C 28.722656 -42.519531 28.039062 -42.78125 27.1875 -42.78125 C 25.90625 -42.78125 24.519531 -42.234375 23.03125 -41.140625 C 21.539062 -40.046875 20.191406 -38.34375 18.984375 -36.03125 C 17.941406 -33.113281 16.796875 -29.875 15.546875 -26.3125 C 14.304688 -22.757812 13.0625 -19.21875 11.8125 -15.6875 C 10.5625 -12.164062 9.390625 -8.914062 8.296875 -5.9375 C 7.628906 -3.863281 6.488281 -2.320312 4.875 -1.3125 C 3.269531 -0.3125 1.675781 0.1875 0.09375 0.1875 C -1.363281 0.1875 -2.65625 -0.238281 -3.78125 -1.09375 C -4.90625 -1.945312 -5.46875 -3.222656 -5.46875 -4.921875 C -5.46875 -5.710938 -5.347656 -6.472656 -5.109375 -7.203125 L 10.125 -49.8125 C 10.613281 -51.09375 11.40625 -52.035156 12.5 -52.640625 C 13.59375 -53.242188 14.78125 -53.546875 16.0625 -53.546875 C 17.269531 -53.546875 18.390625 -53.332031 19.421875 -52.90625 C 20.460938 -52.488281 21.101562 -51.851562 21.34375 -51 C 23.65625 -52.695312 26.578125 -53.546875 30.109375 -53.546875 C 32.535156 -53.546875 34.769531 -52.984375 36.8125 -51.859375 C 38.851562 -50.734375 40.492188 -49.210938 41.734375 -47.296875 C 42.984375 -45.390625 43.609375 -43.21875 43.609375 -40.78125 C 43.609375 -39.320312 43.273438 -37.648438 42.609375 -35.765625 L 35.484375 -15.515625 C 35.179688 -14.472656 35.03125 -13.710938 35.03125 -13.234375 C 35.03125 -11.648438 35.882812 -10.859375 37.59375 -10.859375 C 39.71875 -10.859375 41.960938 -12.054688 44.328125 -14.453125 C 46.703125 -16.859375 48.894531 -20.800781 50.90625 -26.28125 Z M 50.90625 -26.28125 "/></g></g></g><g fill="#ff5757" fill-opacity="1"><g transform="translate(313.272356, 98.648334)"><g><path d="M 32.578125 -25.734375 C 33.117188 -27.191406 33.953125 -28.253906 35.078125 -28.921875 C 36.203125 -29.585938 37.34375 -29.921875 38.5 -29.921875 C 39.894531 -29.921875 41.15625 -29.523438 42.28125 -28.734375 C 43.40625 -27.941406 43.96875 -26.847656 43.96875 -25.453125 C 43.96875 -25.210938 43.9375 -24.921875 43.875 -24.578125 C 43.820312 -24.242188 43.734375 -23.925781 43.609375 -23.625 C 40.992188 -16.144531 37.359375 -10.335938 32.703125 -6.203125 C 28.054688 -2.066406 22.8125 0 16.96875 0 C 13.863281 0 10.957031 -0.578125 8.25 -1.734375 C 5.550781 -2.890625 3.378906 -4.578125 1.734375 -6.796875 C 0.0859375 -9.015625 -0.734375 -11.675781 -0.734375 -14.78125 C -0.734375 -16.664062 -0.367188 -18.703125 0.359375 -20.890625 L 0.359375 -20.796875 L 8.03125 -42.78125 L 5.015625 -42.78125 C 3.796875 -42.78125 2.820312 -43.253906 2.09375 -44.203125 C 1.363281 -45.148438 1 -46.257812 1 -47.53125 C 1 -48.988281 1.5625 -50.351562 2.6875 -51.625 C 3.8125 -52.90625 5.59375 -53.546875 8.03125 -53.546875 L 11.859375 -53.546875 L 19.15625 -73.90625 C 19.707031 -75.476562 20.570312 -76.75 21.75 -77.71875 C 22.9375 -78.695312 24.289062 -79.1875 25.8125 -79.1875 C 27.820312 -79.1875 29.390625 -78.59375 30.515625 -77.40625 C 31.640625 -76.226562 32.203125 -74.785156 32.203125 -73.078125 C 32.203125 -72.585938 32.113281 -72.007812 31.9375 -71.34375 L 25.8125 -53.546875 L 29.921875 -53.546875 C 31.691406 -53.546875 32.96875 -53.101562 33.75 -52.21875 C 34.539062 -51.34375 34.9375 -50.296875 34.9375 -49.078125 C 34.9375 -47.554688 34.328125 -46.125 33.109375 -44.78125 C 31.898438 -43.445312 30.140625 -42.78125 27.828125 -42.78125 L 21.890625 -42.78125 L 12.953125 -17.328125 C 12.890625 -17.023438 12.8125 -16.691406 12.71875 -16.328125 C 12.632812 -15.960938 12.59375 -15.628906 12.59375 -15.328125 C 12.59375 -14.109375 13.0625 -13.054688 14 -12.171875 C 14.945312 -11.296875 16.238281 -10.859375 17.875 -10.859375 C 20.550781 -10.859375 23.210938 -12.085938 25.859375 -14.546875 C 28.503906 -17.015625 30.742188 -20.742188 32.578125 -25.734375 Z M 32.578125 -25.734375 "/></g></g></g><g fill="#f00b51" fill-opacity="1"><g transform="translate(10.402291, 98.648334)"><g><path d="M 49.546875 -29.015625 C 49.910156 -30.109375 50.546875 -30.894531 51.453125 -31.375 C 52.367188 -31.863281 53.3125 -32.109375 54.28125 -32.109375 C 55.800781 -32.109375 57.210938 -31.664062 58.515625 -30.78125 C 59.828125 -29.90625 60.484375 -28.707031 60.484375 -27.1875 C 60.484375 -26.757812 60.394531 -26.273438 60.21875 -25.734375 C 59.125 -22.265625 57.40625 -19.328125 55.0625 -16.921875 C 52.71875 -14.515625 50.007812 -12.6875 46.9375 -11.4375 C 43.863281 -10.195312 40.71875 -9.578125 37.5 -9.578125 C 36.28125 -9.578125 35.125 -9.671875 34.03125 -9.859375 C 32.082031 -6.203125 29.4375 -3.644531 26.09375 -2.1875 C 22.75 -0.726562 19.40625 0 16.0625 0 C 13.019531 0 10.175781 -0.578125 7.53125 -1.734375 C 4.882812 -2.890625 2.753906 -4.59375 1.140625 -6.84375 C -0.472656 -9.09375 -1.28125 -11.890625 -1.28125 -15.234375 C -1.28125 -17.546875 -0.851562 -19.890625 0 -22.265625 C 1.945312 -27.921875 3.878906 -33.46875 5.796875 -38.90625 C 7.710938 -44.351562 9.671875 -49.921875 11.671875 -55.609375 C 13.679688 -61.296875 15.78125 -67.332031 17.96875 -73.71875 C 18.644531 -75.601562 19.601562 -76.984375 20.84375 -77.859375 C 22.09375 -78.742188 23.414062 -79.1875 24.8125 -79.1875 C 26.394531 -79.1875 27.835938 -78.671875 29.140625 -77.640625 C 30.453125 -76.609375 31.109375 -75.117188 31.109375 -73.171875 C 31.109375 -72.679688 31.046875 -72.175781 30.921875 -71.65625 C 30.804688 -71.144531 30.65625 -70.585938 30.46875 -69.984375 L 24.546875 -52.921875 C 25.878906 -53.335938 27.335938 -53.546875 28.921875 -53.546875 C 31.597656 -53.546875 34.0625 -52.921875 36.3125 -51.671875 C 38.5625 -50.429688 40.351562 -48.703125 41.6875 -46.484375 C 43.03125 -44.265625 43.703125 -41.664062 43.703125 -38.6875 C 43.703125 -36.4375 43.242188 -34.0625 42.328125 -31.5625 L 38.234375 -20.4375 L 38.6875 -20.4375 C 41.113281 -20.4375 43.285156 -21.210938 45.203125 -22.765625 C 47.117188 -24.316406 48.566406 -26.398438 49.546875 -29.015625 Z M 22.4375 -15.6875 C 20.5 -17.9375 19.53125 -20.398438 19.53125 -23.078125 C 19.53125 -25.390625 20.300781 -27.351562 21.84375 -28.96875 C 23.394531 -30.582031 25.296875 -31.390625 27.546875 -31.390625 C 27.859375 -31.390625 27.96875 -31.414062 27.875 -31.46875 C 27.78125 -31.53125 27.851562 -31.503906 28.09375 -31.390625 L 30.015625 -36.859375 C 30.253906 -37.523438 30.375 -38.222656 30.375 -38.953125 C 30.375 -40.109375 30.007812 -41.035156 29.28125 -41.734375 C 28.550781 -42.429688 27.578125 -42.78125 26.359375 -42.78125 C 25.023438 -42.78125 23.6875 -42.265625 22.34375 -41.234375 C 21.007812 -40.203125 19.890625 -38.832031 18.984375 -37.125 C 17.828125 -33.664062 16.695312 -30.398438 15.59375 -27.328125 C 14.5 -24.253906 13.347656 -21.015625 12.140625 -17.609375 C 11.953125 -17.117188 11.828125 -16.644531 11.765625 -16.1875 C 11.703125 -15.738281 11.671875 -15.300781 11.671875 -14.875 C 11.671875 -13.59375 12.066406 -12.601562 12.859375 -11.90625 C 13.648438 -11.207031 14.71875 -10.859375 16.0625 -10.859375 C 17.269531 -10.859375 18.46875 -11.160156 19.65625 -11.765625 C 20.84375 -12.378906 21.710938 -13.445312 22.265625 -14.96875 Z M 22.4375 -15.6875 "/></g></g></g><g fill="#f00b51" fill-opacity="1"><g transform="translate(55.928382, 98.648334)"><g><path d="M 57.203125 -30.84375 C 58.546875 -30.84375 59.71875 -30.445312 60.71875 -29.65625 C 61.71875 -28.863281 62.21875 -27.675781 62.21875 -26.09375 C 62.21875 -25.300781 62.003906 -24.296875 61.578125 -23.078125 C 61.148438 -21.859375 60.601562 -20.367188 59.9375 -18.609375 C 57.988281 -13.679688 55.660156 -9.878906 52.953125 -7.203125 C 50.253906 -4.523438 47.457031 -2.65625 44.5625 -1.59375 C 41.675781 -0.53125 38.957031 0 36.40625 0 C 35.488281 0 34.253906 -0.117188 32.703125 -0.359375 C 31.148438 -0.609375 29.597656 -1.082031 28.046875 -1.78125 C 26.503906 -2.476562 25.242188 -3.523438 24.265625 -4.921875 C 22.566406 -3.398438 20.664062 -2.195312 18.5625 -1.3125 C 16.46875 -0.4375 14.351562 0 12.21875 0 C 9.550781 0 7.148438 -0.617188 5.015625 -1.859375 C 2.890625 -3.109375 1.203125 -4.78125 -0.046875 -6.875 C -1.296875 -8.976562 -1.921875 -11.28125 -1.921875 -13.78125 C -1.921875 -14.625 -1.828125 -15.457031 -1.640625 -16.28125 C -1.460938 -17.101562 -1.25 -17.910156 -1 -18.703125 L 7.578125 -43.25 C 8.785156 -46.769531 10.847656 -49.363281 13.765625 -51.03125 C 16.691406 -52.707031 19.644531 -53.546875 22.625 -53.546875 C 24.9375 -53.546875 26.957031 -53.269531 28.6875 -52.71875 C 30.425781 -52.175781 31.78125 -51.601562 32.75 -51 C 33.476562 -52.15625 34.453125 -53.019531 35.671875 -53.59375 C 36.890625 -54.175781 38.132812 -54.46875 39.40625 -54.46875 C 41.113281 -54.46875 42.648438 -53.945312 44.015625 -52.90625 C 45.390625 -51.875 46.078125 -50.359375 46.078125 -48.359375 C 46.078125 -47.441406 45.894531 -46.4375 45.53125 -45.34375 L 35.3125 -15.78125 C 35 -14.6875 34.84375 -13.804688 34.84375 -13.140625 C 34.84375 -11.617188 35.664062 -10.859375 37.3125 -10.859375 C 38.707031 -10.859375 40.210938 -11.328125 41.828125 -12.265625 C 43.441406 -13.210938 45.039062 -14.78125 46.625 -16.96875 C 48.207031 -19.15625 49.570312 -22.101562 50.71875 -25.8125 C 51.269531 -27.582031 52.164062 -28.863281 53.40625 -29.65625 C 54.65625 -30.445312 55.921875 -30.84375 57.203125 -30.84375 Z M 27.09375 -31.75 C 27.820312 -34.0625 28.1875 -35.851562 28.1875 -37.125 C 28.1875 -38.707031 27.789062 -39.910156 27 -40.734375 C 26.207031 -41.554688 25.390625 -41.96875 24.546875 -41.96875 C 23.816406 -41.96875 22.890625 -41.617188 21.765625 -40.921875 C 20.640625 -40.222656 19.648438 -38.472656 18.796875 -35.671875 L 12.953125 -17.328125 C 12.828125 -16.910156 12.703125 -16.441406 12.578125 -15.921875 C 12.460938 -15.398438 12.40625 -14.835938 12.40625 -14.234375 C 12.40625 -11.984375 13.410156 -10.859375 15.421875 -10.859375 C 16.390625 -10.859375 17.601562 -11.328125 19.0625 -12.265625 C 20.519531 -13.210938 21.738281 -15.175781 22.71875 -18.15625 Z M 27.09375 -31.75 "/></g></g></g><g fill="#f00b51" fill-opacity="1"><g transform="translate(103.826582, 98.648334)"><g><path d="M 48.453125 -25.8125 C 48.929688 -27.15625 49.671875 -28.113281 50.671875 -28.6875 C 51.679688 -29.269531 52.734375 -29.5625 53.828125 -29.5625 C 55.285156 -29.5625 56.640625 -29.132812 57.890625 -28.28125 C 59.140625 -27.425781 59.765625 -26.332031 59.765625 -25 C 59.765625 -24.8125 59.765625 -24.609375 59.765625 -24.390625 C 59.765625 -24.179688 59.703125 -23.988281 59.578125 -23.8125 C 57.453125 -17.664062 54.53125 -12.8125 50.8125 -9.25 C 47.101562 -5.695312 42.875 -3.160156 38.125 -1.640625 C 33.382812 -0.117188 28.367188 0.640625 23.078125 0.640625 C 17.722656 0.640625 13.175781 -0.0546875 9.4375 -1.453125 C 5.695312 -2.859375 2.851562 -4.757812 0.90625 -7.15625 C -1.03125 -9.5625 -2 -12.253906 -2 -15.234375 C -2 -17.179688 -1.664062 -19.15625 -1 -21.15625 C -0.332031 -23.164062 0.679688 -24.945312 2.046875 -26.5 C 3.421875 -28.050781 5.109375 -29.070312 7.109375 -29.5625 C 8.941406 -32.96875 10.800781 -36.414062 12.6875 -39.90625 C 14.570312 -43.40625 16.394531 -46.890625 18.15625 -50.359375 C 19.007812 -52.117188 20.238281 -53.441406 21.84375 -54.328125 C 23.457031 -55.210938 25.117188 -55.65625 26.828125 -55.65625 C 29.140625 -55.65625 30.976562 -54.878906 32.34375 -53.328125 C 33.707031 -51.773438 34.390625 -50.023438 34.390625 -48.078125 C 34.390625 -46.742188 33.945312 -45.421875 33.0625 -44.109375 C 32.1875 -42.804688 31.109375 -41.878906 29.828125 -41.328125 C 30.015625 -39.929688 30.503906 -38.472656 31.296875 -36.953125 C 32.085938 -35.429688 32.9375 -33.878906 33.84375 -32.296875 C 35.125 -30.171875 36.34375 -27.875 37.5 -25.40625 C 38.65625 -22.945312 39.234375 -20.378906 39.234375 -17.703125 C 39.234375 -17.085938 39.203125 -16.503906 39.140625 -15.953125 C 39.078125 -15.410156 38.984375 -14.835938 38.859375 -14.234375 C 40.992188 -15.453125 42.847656 -17.019531 44.421875 -18.9375 C 46.003906 -20.851562 47.347656 -23.144531 48.453125 -25.8125 Z M 19.53125 -28.28125 C 20.3125 -27.488281 20.882812 -26.585938 21.25 -25.578125 C 21.625 -24.578125 21.8125 -23.5625 21.8125 -22.53125 C 21.8125 -20.28125 21.078125 -18.226562 19.609375 -16.375 C 18.148438 -14.519531 16.082031 -13.59375 13.40625 -13.59375 C 13.101562 -13.59375 12.769531 -13.609375 12.40625 -13.640625 C 12.039062 -13.671875 11.675781 -13.71875 11.3125 -13.78125 C 11.800781 -12.625 12.679688 -11.707031 13.953125 -11.03125 C 15.234375 -10.363281 16.632812 -10.03125 18.15625 -10.03125 C 20.59375 -10.15625 22.382812 -10.992188 23.53125 -12.546875 C 24.6875 -14.097656 25.265625 -15.9375 25.265625 -18.0625 C 25.265625 -20.1875 24.789062 -22.296875 23.84375 -24.390625 C 22.90625 -26.492188 21.738281 -28.367188 20.34375 -30.015625 Z M 19.53125 -28.28125 "/></g></g></g><g fill="#f00b51" fill-opacity="1"><g transform="translate(149.352673, 98.648334)"><g><path d="M 52 -26.453125 C 52.488281 -27.972656 53.265625 -29.066406 54.328125 -29.734375 C 55.390625 -30.410156 56.5 -30.75 57.65625 -30.75 C 59.113281 -30.75 60.421875 -30.320312 61.578125 -29.46875 C 62.734375 -28.613281 63.3125 -27.488281 63.3125 -26.09375 C 63.3125 -25.601562 63.222656 -25.023438 63.046875 -24.359375 C 60.859375 -18.035156 58.363281 -13.109375 55.5625 -9.578125 C 52.757812 -6.046875 49.835938 -3.566406 46.796875 -2.140625 C 43.753906 -0.710938 40.773438 0 37.859375 0 C 35.304688 0 32.875 -0.484375 30.5625 -1.453125 C 28.25 -2.429688 26.378906 -3.894531 24.953125 -5.84375 C 23.523438 -7.789062 22.8125 -10.191406 22.8125 -13.046875 C 22.8125 -14.867188 23.175781 -16.875 23.90625 -19.0625 L 30.5625 -38.140625 C 30.800781 -38.617188 30.921875 -39.164062 30.921875 -39.78125 C 30.921875 -40.632812 30.628906 -41.347656 30.046875 -41.921875 C 29.472656 -42.492188 28.734375 -42.78125 27.828125 -42.78125 C 26.429688 -42.78125 25.015625 -42.203125 23.578125 -41.046875 C 22.148438 -39.898438 20.953125 -38.441406 19.984375 -36.671875 L 8.9375 -5.46875 C 8.269531 -3.582031 7.3125 -2.195312 6.0625 -1.3125 C 4.820312 -0.4375 3.53125 0 2.1875 0 C 0.664062 0 -0.726562 -0.59375 -2 -1.78125 C -3.28125 -2.96875 -3.921875 -4.59375 -3.921875 -6.65625 C -3.921875 -7.8125 -3.707031 -9 -3.28125 -10.21875 L 18.609375 -72.25 C 19.460938 -74.6875 20.484375 -76.453125 21.671875 -77.546875 C 22.859375 -78.640625 24.332031 -79.1875 26.09375 -79.1875 C 27.613281 -79.1875 28.992188 -78.671875 30.234375 -77.640625 C 31.484375 -76.609375 32.109375 -75.117188 32.109375 -73.171875 C 32.109375 -72.554688 32.015625 -71.914062 31.828125 -71.25 C 31.648438 -70.582031 31.441406 -69.882812 31.203125 -69.15625 L 25.453125 -52.375 C 27.273438 -53.15625 29.222656 -53.546875 31.296875 -53.546875 C 33.785156 -53.546875 36.019531 -52.96875 38 -51.8125 C 39.976562 -50.664062 41.546875 -49.117188 42.703125 -47.171875 C 43.859375 -45.222656 44.4375 -43.03125 44.4375 -40.59375 C 44.4375 -39.800781 44.375 -38.992188 44.25 -38.171875 C 44.125 -37.359375 43.910156 -36.523438 43.609375 -35.671875 L 36.125 -14.421875 C 35.945312 -14.054688 35.859375 -13.660156 35.859375 -13.234375 C 35.859375 -12.554688 36.113281 -11.988281 36.625 -11.53125 C 37.144531 -11.082031 37.832031 -10.859375 38.6875 -10.859375 C 40.75 -10.859375 42.984375 -12.085938 45.390625 -14.546875 C 47.796875 -17.015625 50 -20.984375 52 -26.453125 Z M 52 -26.453125 "/></g></g></g><g fill="#f00b51" fill-opacity="1"><g transform="translate(198.254446, 98.648334)"><g><path d="M 80.828125 -30.5625 C 82.234375 -30.5625 83.484375 -30.164062 84.578125 -29.375 C 85.671875 -28.582031 86.21875 -27.457031 86.21875 -26 C 86.21875 -25.695312 86.1875 -25.378906 86.125 -25.046875 C 86.0625 -24.710938 85.972656 -24.390625 85.859375 -24.078125 C 83.785156 -18.003906 81.332031 -13.21875 78.5 -9.71875 C 75.675781 -6.21875 72.726562 -3.722656 69.65625 -2.234375 C 66.582031 -0.742188 63.523438 0 60.484375 0 C 57.804688 0 55.34375 -0.5 53.09375 -1.5 C 50.84375 -2.507812 49.035156 -3.984375 47.671875 -5.921875 C 46.304688 -7.867188 45.625 -10.210938 45.625 -12.953125 C 45.625 -14.960938 45.988281 -17 46.71875 -19.0625 L 53.640625 -37.953125 C 53.890625 -38.679688 54.015625 -39.347656 54.015625 -39.953125 C 54.015625 -40.804688 53.738281 -41.488281 53.1875 -42 C 52.644531 -42.519531 51.945312 -42.78125 51.09375 -42.78125 C 49.570312 -42.78125 48.050781 -42.125 46.53125 -40.8125 C 45.007812 -39.507812 43.820312 -37.707031 42.96875 -35.40625 L 32.484375 -5.75 C 31.804688 -3.800781 30.738281 -2.351562 29.28125 -1.40625 C 27.820312 -0.46875 26.332031 0 24.8125 0 C 23.289062 0 21.9375 -0.46875 20.75 -1.40625 C 19.570312 -2.351562 18.984375 -3.679688 18.984375 -5.390625 C 18.984375 -6.359375 19.222656 -7.484375 19.703125 -8.765625 L 30.375 -38.40625 C 30.625 -38.957031 30.75 -39.535156 30.75 -40.140625 C 30.75 -40.992188 30.457031 -41.644531 29.875 -42.09375 C 29.300781 -42.550781 28.554688 -42.78125 27.640625 -42.78125 C 26.304688 -42.78125 24.953125 -42.25 23.578125 -41.1875 C 22.210938 -40.125 21.046875 -38.617188 20.078125 -36.671875 L 9.21875 -5.46875 C 8.601562 -3.644531 7.597656 -2.273438 6.203125 -1.359375 C 4.804688 -0.453125 3.316406 0 1.734375 0 C 0.148438 0 -1.257812 -0.453125 -2.5 -1.359375 C -3.75 -2.273438 -4.375 -3.585938 -4.375 -5.296875 C -4.375 -6.023438 -4.253906 -6.753906 -4.015625 -7.484375 L 10.578125 -49.546875 C 11.128906 -50.878906 12.054688 -51.878906 13.359375 -52.546875 C 14.671875 -53.210938 16.023438 -53.546875 17.421875 -53.546875 C 18.460938 -53.546875 19.4375 -53.363281 20.34375 -53 C 21.257812 -52.632812 21.957031 -52.117188 22.4375 -51.453125 C 23.289062 -51.941406 24.296875 -52.410156 25.453125 -52.859375 C 26.609375 -53.316406 28.128906 -53.546875 30.015625 -53.546875 C 32.691406 -53.546875 34.820312 -53.117188 36.40625 -52.265625 C 37.988281 -51.421875 39.265625 -50.453125 40.234375 -49.359375 C 42.359375 -51.054688 44.515625 -52.175781 46.703125 -52.71875 C 48.898438 -53.269531 50.816406 -53.546875 52.453125 -53.546875 C 55.253906 -53.546875 57.796875 -53.03125 60.078125 -52 C 62.359375 -50.96875 64.179688 -49.523438 65.546875 -47.671875 C 66.921875 -45.816406 67.609375 -43.582031 67.609375 -40.96875 C 67.609375 -40.175781 67.53125 -39.335938 67.375 -38.453125 C 67.226562 -37.566406 67 -36.703125 66.6875 -35.859375 L 58.9375 -14.59375 C 58.875 -14.414062 58.828125 -14.21875 58.796875 -14 C 58.765625 -13.789062 58.75 -13.5625 58.75 -13.3125 C 58.75 -12.644531 58.976562 -12.066406 59.4375 -11.578125 C 59.894531 -11.097656 60.578125 -10.859375 61.484375 -10.859375 C 63.617188 -10.859375 65.867188 -12.054688 68.234375 -14.453125 C 70.609375 -16.859375 72.800781 -20.800781 74.8125 -26.28125 C 75.300781 -27.738281 76.125 -28.816406 77.28125 -29.515625 C 78.4375 -30.210938 79.617188 -30.5625 80.828125 -30.5625 Z M 80.828125 -30.5625 "/></g></g></g><g fill="#f00b51" fill-opacity="1"><g transform="translate(269.964884, 98.648334)"><g><path d="M 50.90625 -26.28125 C 51.394531 -27.800781 52.234375 -28.910156 53.421875 -29.609375 C 54.609375 -30.304688 55.804688 -30.65625 57.015625 -30.65625 C 58.421875 -30.65625 59.671875 -30.273438 60.765625 -29.515625 C 61.859375 -28.753906 62.40625 -27.644531 62.40625 -26.1875 C 62.40625 -25.570312 62.253906 -24.867188 61.953125 -24.078125 C 59.878906 -18.179688 57.441406 -13.46875 54.640625 -9.9375 C 51.847656 -6.414062 48.882812 -3.878906 45.75 -2.328125 C 42.625 -0.773438 39.507812 0 36.40625 0 C 33.851562 0 31.445312 -0.484375 29.1875 -1.453125 C 26.9375 -2.429688 25.128906 -3.878906 23.765625 -5.796875 C 22.398438 -7.710938 21.71875 -10.066406 21.71875 -12.859375 C 21.71875 -13.835938 21.820312 -14.828125 22.03125 -15.828125 C 22.25 -16.828125 22.539062 -17.847656 22.90625 -18.890625 L 29.5625 -37.6875 C 29.863281 -38.59375 30.015625 -39.347656 30.015625 -39.953125 C 30.015625 -40.804688 29.753906 -41.488281 29.234375 -42 C 28.722656 -42.519531 28.039062 -42.78125 27.1875 -42.78125 C 25.90625 -42.78125 24.519531 -42.234375 23.03125 -41.140625 C 21.539062 -40.046875 20.191406 -38.34375 18.984375 -36.03125 C 17.941406 -33.113281 16.796875 -29.875 15.546875 -26.3125 C 14.304688 -22.757812 13.0625 -19.21875 11.8125 -15.6875 C 10.5625 -12.164062 9.390625 -8.914062 8.296875 -5.9375 C 7.628906 -3.863281 6.488281 -2.320312 4.875 -1.3125 C 3.269531 -0.3125 1.675781 0.1875 0.09375 0.1875 C -1.363281 0.1875 -2.65625 -0.238281 -3.78125 -1.09375 C -4.90625 -1.945312 -5.46875 -3.222656 -5.46875 -4.921875 C -5.46875 -5.710938 -5.347656 -6.472656 -5.109375 -7.203125 L 10.125 -49.8125 C 10.613281 -51.09375 11.40625 -52.035156 12.5 -52.640625 C 13.59375 -53.242188 14.78125 -53.546875 16.0625 -53.546875 C 17.269531 -53.546875 18.390625 -53.332031 19.421875 -52.90625 C 20.460938 -52.488281 21.101562 -51.851562 21.34375 -51 C 23.65625 -52.695312 26.578125 -53.546875 30.109375 -53.546875 C 32.535156 -53.546875 34.769531 -52.984375 36.8125 -51.859375 C 38.851562 -50.734375 40.492188 -49.210938 41.734375 -47.296875 C 42.984375 -45.390625 43.609375 -43.21875 43.609375 -40.78125 C 43.609375 -39.320312 43.273438 -37.648438 42.609375 -35.765625 L 35.484375 -15.515625 C 35.179688 -14.472656 35.03125 -13.710938 35.03125 -13.234375 C 35.03125 -11.648438 35.882812 -10.859375 37.59375 -10.859375 C 39.71875 -10.859375 41.960938 -12.054688 44.328125 -14.453125 C 46.703125 -16.859375 48.894531 -20.800781 50.90625 -26.28125 Z M 50.90625 -26.28125 "/></g></g></g><g fill="#f00b51" fill-opacity="1"><g transform="translate(317.863071, 98.648334)"><g><path d="M 32.578125 -25.734375 C 33.117188 -27.191406 33.953125 -28.253906 35.078125 -28.921875 C 36.203125 -29.585938 37.34375 -29.921875 38.5 -29.921875 C 39.894531 -29.921875 41.15625 -29.523438 42.28125 -28.734375 C 43.40625 -27.941406 43.96875 -26.847656 43.96875 -25.453125 C 43.96875 -25.210938 43.9375 -24.921875 43.875 -24.578125 C 43.820312 -24.242188 43.734375 -23.925781 43.609375 -23.625 C 40.992188 -16.144531 37.359375 -10.335938 32.703125 -6.203125 C 28.054688 -2.066406 22.8125 0 16.96875 0 C 13.863281 0 10.957031 -0.578125 8.25 -1.734375 C 5.550781 -2.890625 3.378906 -4.578125 1.734375 -6.796875 C 0.0859375 -9.015625 -0.734375 -11.675781 -0.734375 -14.78125 C -0.734375 -16.664062 -0.367188 -18.703125 0.359375 -20.890625 L 0.359375 -20.796875 L 8.03125 -42.78125 L 5.015625 -42.78125 C 3.796875 -42.78125 2.820312 -43.253906 2.09375 -44.203125 C 1.363281 -45.148438 1 -46.257812 1 -47.53125 C 1 -48.988281 1.5625 -50.351562 2.6875 -51.625 C 3.8125 -52.90625 5.59375 -53.546875 8.03125 -53.546875 L 11.859375 -53.546875 L 19.15625 -73.90625 C 19.707031 -75.476562 20.570312 -76.75 21.75 -77.71875 C 22.9375 -78.695312 24.289062 -79.1875 25.8125 -79.1875 C 27.820312 -79.1875 29.390625 -78.59375 30.515625 -77.40625 C 31.640625 -76.226562 32.203125 -74.785156 32.203125 -73.078125 C 32.203125 -72.585938 32.113281 -72.007812 31.9375 -71.34375 L 25.8125 -53.546875 L 29.921875 -53.546875 C 31.691406 -53.546875 32.96875 -53.101562 33.75 -52.21875 C 34.539062 -51.34375 34.9375 -50.296875 34.9375 -49.078125 C 34.9375 -47.554688 34.328125 -46.125 33.109375 -44.78125 C 31.898438 -43.445312 30.140625 -42.78125 27.828125 -42.78125 L 21.890625 -42.78125 L 12.953125 -17.328125 C 12.890625 -17.023438 12.8125 -16.691406 12.71875 -16.328125 C 12.632812 -15.960938 12.59375 -15.628906 12.59375 -15.328125 C 12.59375 -14.109375 13.0625 -13.054688 14 -12.171875 C 14.945312 -11.296875 16.238281 -10.859375 17.875 -10.859375 C 20.550781 -10.859375 23.210938 -12.085938 25.859375 -14.546875 C 28.503906 -17.015625 30.742188 -20.742188 32.578125 -25.734375 Z M 32.578125 -25.734375 "/></g></g></g></svg>