<svg xmlns="http://www.w3.org/2000/svg" xmlns:xlink="http://www.w3.org/1999/xlink" width="500" zoomAndPan="magnify" viewBox="0 0 375 149.999998" height="200" preserveAspectRatio="xMidYMid meet" version="1.0"><defs><g/></defs><g fill="#ff5757" fill-opacity="1"><g transform="translate(29.300175, 112.396784)"><g><path d="M 45.734375 -26.78125 C 46.078125 -27.789062 46.664062 -28.519531 47.5 -28.96875 C 48.34375 -29.425781 49.21875 -29.65625 50.125 -29.65625 C 51.519531 -29.65625 52.820312 -29.242188 54.03125 -28.421875 C 55.238281 -27.609375 55.84375 -26.503906 55.84375 -25.109375 C 55.84375 -24.710938 55.757812 -24.257812 55.59375 -23.75 C 54.582031 -20.550781 52.992188 -17.84375 50.828125 -15.625 C 48.671875 -13.40625 46.171875 -11.71875 43.328125 -10.5625 C 40.492188 -9.414062 37.59375 -8.84375 34.625 -8.84375 C 33.5 -8.84375 32.429688 -8.925781 31.421875 -9.09375 C 29.617188 -5.726562 27.171875 -3.367188 24.078125 -2.015625 C 20.992188 -0.671875 17.910156 0 14.828125 0 C 12.015625 0 9.382812 -0.53125 6.9375 -1.59375 C 4.5 -2.664062 2.535156 -4.238281 1.046875 -6.3125 C -0.429688 -8.394531 -1.171875 -10.976562 -1.171875 -14.0625 C -1.171875 -16.195312 -0.78125 -18.359375 0 -20.546875 C 1.800781 -25.773438 3.582031 -30.898438 5.34375 -35.921875 C 7.113281 -40.953125 8.925781 -46.09375 10.78125 -51.34375 C 12.632812 -56.59375 14.570312 -62.164062 16.59375 -68.0625 C 17.207031 -69.800781 18.085938 -71.078125 19.234375 -71.890625 C 20.390625 -72.703125 21.613281 -73.109375 22.90625 -73.109375 C 24.375 -73.109375 25.707031 -72.628906 26.90625 -71.671875 C 28.113281 -70.722656 28.71875 -69.351562 28.71875 -67.5625 C 28.71875 -67.101562 28.660156 -66.632812 28.546875 -66.15625 C 28.441406 -65.6875 28.304688 -65.171875 28.140625 -64.609375 L 22.65625 -48.859375 C 23.894531 -49.253906 25.242188 -49.453125 26.703125 -49.453125 C 29.171875 -49.453125 31.441406 -48.875 33.515625 -47.71875 C 35.597656 -46.5625 37.253906 -44.957031 38.484375 -42.90625 C 39.722656 -40.863281 40.34375 -38.46875 40.34375 -35.71875 C 40.34375 -33.632812 39.921875 -31.441406 39.078125 -29.140625 L 35.296875 -18.875 L 35.71875 -18.875 C 37.957031 -18.875 39.960938 -19.585938 41.734375 -21.015625 C 43.503906 -22.453125 44.835938 -24.375 45.734375 -26.78125 Z M 20.71875 -14.484375 C 18.925781 -16.566406 18.03125 -18.84375 18.03125 -21.3125 C 18.03125 -23.445312 18.742188 -25.257812 20.171875 -26.75 C 21.609375 -28.238281 23.363281 -28.984375 25.4375 -28.984375 C 25.71875 -28.984375 25.816406 -29.007812 25.734375 -29.0625 C 25.648438 -29.113281 25.71875 -29.085938 25.9375 -28.984375 L 27.71875 -34.03125 C 27.9375 -34.644531 28.046875 -35.289062 28.046875 -35.96875 C 28.046875 -37.03125 27.707031 -37.882812 27.03125 -38.53125 C 26.363281 -39.175781 25.46875 -39.5 24.34375 -39.5 C 23.101562 -39.5 21.863281 -39.019531 20.625 -38.0625 C 19.394531 -37.113281 18.359375 -35.851562 17.515625 -34.28125 C 16.453125 -31.082031 15.414062 -28.0625 14.40625 -25.21875 C 13.394531 -22.382812 12.328125 -19.394531 11.203125 -16.25 C 11.035156 -15.800781 10.921875 -15.363281 10.859375 -14.9375 C 10.804688 -14.519531 10.78125 -14.117188 10.78125 -13.734375 C 10.78125 -12.554688 11.144531 -11.644531 11.875 -11 C 12.601562 -10.351562 13.585938 -10.03125 14.828125 -10.03125 C 15.953125 -10.03125 17.0625 -10.304688 18.15625 -10.859375 C 19.25 -11.421875 20.046875 -12.40625 20.546875 -13.8125 Z M 20.71875 -14.484375 "/></g></g></g><g fill="#ff5757" fill-opacity="1"><g transform="translate(71.333143, 112.396784)"><g><path d="M 52.8125 -28.46875 C 54.050781 -28.46875 55.132812 -28.101562 56.0625 -27.375 C 56.988281 -26.644531 57.453125 -25.550781 57.453125 -24.09375 C 57.453125 -23.363281 57.253906 -22.4375 56.859375 -21.3125 C 56.460938 -20.1875 55.957031 -18.8125 55.34375 -17.1875 C 53.539062 -12.632812 51.390625 -9.125 48.890625 -6.65625 C 46.398438 -4.1875 43.816406 -2.457031 41.140625 -1.46875 C 38.472656 -0.488281 35.960938 0 33.609375 0 C 32.765625 0 31.625 -0.109375 30.1875 -0.328125 C 28.757812 -0.554688 27.328125 -0.992188 25.890625 -1.640625 C 24.460938 -2.285156 23.300781 -3.253906 22.40625 -4.546875 C 20.832031 -3.140625 19.078125 -2.03125 17.140625 -1.21875 C 15.203125 -0.40625 13.25 0 11.28125 0 C 8.8125 0 6.59375 -0.570312 4.625 -1.71875 C 2.664062 -2.875 1.113281 -4.421875 -0.03125 -6.359375 C -1.1875 -8.296875 -1.765625 -10.414062 -1.765625 -12.71875 C -1.765625 -13.507812 -1.679688 -14.28125 -1.515625 -15.03125 C -1.347656 -15.789062 -1.148438 -16.535156 -0.921875 -17.265625 L 6.984375 -39.921875 C 8.109375 -43.179688 10.019531 -45.582031 12.71875 -47.125 C 15.414062 -48.675781 18.140625 -49.453125 20.890625 -49.453125 C 23.023438 -49.453125 24.890625 -49.195312 26.484375 -48.6875 C 28.085938 -48.175781 29.335938 -47.644531 30.234375 -47.09375 C 30.910156 -48.15625 31.8125 -48.953125 32.9375 -49.484375 C 34.0625 -50.015625 35.210938 -50.28125 36.390625 -50.28125 C 37.960938 -50.28125 39.378906 -49.800781 40.640625 -48.84375 C 41.898438 -47.894531 42.53125 -46.492188 42.53125 -44.640625 C 42.53125 -43.796875 42.363281 -42.867188 42.03125 -41.859375 L 32.59375 -14.578125 C 32.3125 -13.566406 32.171875 -12.75 32.171875 -12.125 C 32.171875 -10.726562 32.929688 -10.03125 34.453125 -10.03125 C 35.742188 -10.03125 37.132812 -10.460938 38.625 -11.328125 C 40.113281 -12.203125 41.585938 -13.648438 43.046875 -15.671875 C 44.503906 -17.691406 45.765625 -20.414062 46.828125 -23.84375 C 47.335938 -25.46875 48.164062 -26.644531 49.3125 -27.375 C 50.46875 -28.101562 51.632812 -28.46875 52.8125 -28.46875 Z M 25.015625 -29.3125 C 25.691406 -31.445312 26.03125 -33.101562 26.03125 -34.28125 C 26.03125 -35.738281 25.664062 -36.847656 24.9375 -37.609375 C 24.207031 -38.367188 23.445312 -38.75 22.65625 -38.75 C 21.976562 -38.75 21.117188 -38.425781 20.078125 -37.78125 C 19.046875 -37.132812 18.140625 -35.519531 17.359375 -32.9375 L 11.96875 -16 C 11.851562 -15.613281 11.738281 -15.179688 11.625 -14.703125 C 11.507812 -14.222656 11.453125 -13.703125 11.453125 -13.140625 C 11.453125 -11.066406 12.378906 -10.03125 14.234375 -10.03125 C 15.128906 -10.03125 16.25 -10.460938 17.59375 -11.328125 C 18.945312 -12.203125 20.070312 -14.015625 20.96875 -16.765625 Z M 25.015625 -29.3125 "/></g></g></g><g fill="#ff5757" fill-opacity="1"><g transform="translate(115.556212, 112.396784)"><g><path d="M 44.734375 -23.84375 C 45.179688 -25.070312 45.867188 -25.953125 46.796875 -26.484375 C 47.722656 -27.023438 48.691406 -27.296875 49.703125 -27.296875 C 51.046875 -27.296875 52.289062 -26.898438 53.4375 -26.109375 C 54.59375 -25.328125 55.171875 -24.316406 55.171875 -23.078125 C 55.171875 -22.910156 55.171875 -22.726562 55.171875 -22.53125 C 55.171875 -22.332031 55.113281 -22.148438 55 -21.984375 C 53.039062 -16.316406 50.347656 -11.835938 46.921875 -8.546875 C 43.492188 -5.265625 39.585938 -2.921875 35.203125 -1.515625 C 30.828125 -0.109375 26.195312 0.59375 21.3125 0.59375 C 16.375 0.59375 12.175781 -0.0507812 8.71875 -1.34375 C 5.257812 -2.632812 2.628906 -4.390625 0.828125 -6.609375 C -0.960938 -8.828125 -1.859375 -11.3125 -1.859375 -14.0625 C -1.859375 -15.863281 -1.546875 -17.691406 -0.921875 -19.546875 C -0.304688 -21.398438 0.628906 -23.039062 1.890625 -24.46875 C 3.160156 -25.90625 4.71875 -26.847656 6.5625 -27.296875 C 8.25 -30.441406 9.960938 -33.628906 11.703125 -36.859375 C 13.441406 -40.085938 15.128906 -43.300781 16.765625 -46.5 C 17.546875 -48.125 18.679688 -49.34375 20.171875 -50.15625 C 21.660156 -50.976562 23.191406 -51.390625 24.765625 -51.390625 C 26.898438 -51.390625 28.597656 -50.671875 29.859375 -49.234375 C 31.117188 -47.804688 31.75 -46.191406 31.75 -44.390625 C 31.75 -43.148438 31.34375 -41.925781 30.53125 -40.71875 C 29.71875 -39.519531 28.722656 -38.664062 27.546875 -38.15625 C 27.710938 -36.863281 28.160156 -35.515625 28.890625 -34.109375 C 29.617188 -32.710938 30.40625 -31.28125 31.25 -29.8125 C 32.425781 -27.851562 33.546875 -25.734375 34.609375 -23.453125 C 35.679688 -21.179688 36.21875 -18.8125 36.21875 -16.34375 C 36.21875 -15.78125 36.1875 -15.242188 36.125 -14.734375 C 36.070312 -14.234375 35.992188 -13.703125 35.890625 -13.140625 C 37.847656 -14.265625 39.554688 -15.707031 41.015625 -17.46875 C 42.484375 -19.238281 43.722656 -21.363281 44.734375 -23.84375 Z M 18.03125 -26.109375 C 18.757812 -25.378906 19.289062 -24.550781 19.625 -23.625 C 19.957031 -22.695312 20.125 -21.757812 20.125 -20.8125 C 20.125 -18.726562 19.453125 -16.828125 18.109375 -15.109375 C 16.765625 -13.398438 14.851562 -12.546875 12.375 -12.546875 C 12.101562 -12.546875 11.796875 -12.5625 11.453125 -12.59375 C 11.117188 -12.625 10.78125 -12.664062 10.4375 -12.71875 C 10.894531 -11.65625 11.710938 -10.8125 12.890625 -10.1875 C 14.066406 -9.570312 15.359375 -9.265625 16.765625 -9.265625 C 19.003906 -9.378906 20.65625 -10.148438 21.71875 -11.578125 C 22.789062 -13.015625 23.328125 -14.710938 23.328125 -16.671875 C 23.328125 -18.640625 22.890625 -20.59375 22.015625 -22.53125 C 21.148438 -24.46875 20.070312 -26.195312 18.78125 -27.71875 Z M 18.03125 -26.109375 "/></g></g></g><g fill="#ff5757" fill-opacity="1"><g transform="translate(157.589181, 112.396784)"><g><path d="M 48.015625 -24.421875 C 48.460938 -25.828125 49.175781 -26.835938 50.15625 -27.453125 C 51.144531 -28.078125 52.171875 -28.390625 53.234375 -28.390625 C 54.585938 -28.390625 55.796875 -27.992188 56.859375 -27.203125 C 57.921875 -26.421875 58.453125 -25.382812 58.453125 -24.09375 C 58.453125 -23.644531 58.367188 -23.109375 58.203125 -22.484375 C 56.179688 -16.648438 53.878906 -12.101562 51.296875 -8.84375 C 48.710938 -5.582031 46.015625 -3.289062 43.203125 -1.96875 C 40.398438 -0.65625 37.648438 0 34.953125 0 C 32.597656 0 30.351562 -0.445312 28.21875 -1.34375 C 26.082031 -2.25 24.351562 -3.597656 23.03125 -5.390625 C 21.71875 -7.191406 21.0625 -9.410156 21.0625 -12.046875 C 21.0625 -13.734375 21.394531 -15.585938 22.0625 -17.609375 L 28.21875 -35.203125 C 28.445312 -35.660156 28.5625 -36.164062 28.5625 -36.71875 C 28.5625 -37.507812 28.289062 -38.171875 27.75 -38.703125 C 27.21875 -39.234375 26.53125 -39.5 25.6875 -39.5 C 24.394531 -39.5 23.085938 -38.96875 21.765625 -37.90625 C 20.453125 -36.84375 19.347656 -35.492188 18.453125 -33.859375 L 8.25 -5.046875 C 7.632812 -3.304688 6.75 -2.03125 5.59375 -1.21875 C 4.445312 -0.40625 3.253906 0 2.015625 0 C 0.617188 0 -0.664062 -0.546875 -1.84375 -1.640625 C -3.03125 -2.734375 -3.625 -4.238281 -3.625 -6.15625 C -3.625 -7.21875 -3.425781 -8.3125 -3.03125 -9.4375 L 17.1875 -66.71875 C 17.96875 -68.957031 18.90625 -70.582031 20 -71.59375 C 21.09375 -72.601562 22.457031 -73.109375 24.09375 -73.109375 C 25.5 -73.109375 26.773438 -72.628906 27.921875 -71.671875 C 29.078125 -70.722656 29.65625 -69.351562 29.65625 -67.5625 C 29.65625 -67 29.566406 -66.40625 29.390625 -65.78125 C 29.222656 -65.164062 29.03125 -64.519531 28.8125 -63.84375 L 23.5 -48.34375 C 25.1875 -49.082031 26.984375 -49.453125 28.890625 -49.453125 C 31.191406 -49.453125 33.253906 -48.914062 35.078125 -47.84375 C 36.910156 -46.78125 38.359375 -45.347656 39.421875 -43.546875 C 40.484375 -41.753906 41.015625 -39.734375 41.015625 -37.484375 C 41.015625 -36.753906 40.957031 -36.007812 40.84375 -35.25 C 40.738281 -34.488281 40.546875 -33.71875 40.265625 -32.9375 L 33.359375 -13.3125 C 33.191406 -12.96875 33.109375 -12.601562 33.109375 -12.21875 C 33.109375 -11.59375 33.34375 -11.070312 33.8125 -10.65625 C 34.289062 -10.238281 34.925781 -10.03125 35.71875 -10.03125 C 37.625 -10.03125 39.6875 -11.164062 41.90625 -13.4375 C 44.125 -15.707031 46.160156 -19.367188 48.015625 -24.421875 Z M 48.015625 -24.421875 "/></g></g></g><g fill="#ff5757" fill-opacity="1"><g transform="translate(202.738821, 112.396784)"><g><path d="M 74.625 -28.21875 C 75.914062 -28.21875 77.066406 -27.851562 78.078125 -27.125 C 79.097656 -26.394531 79.609375 -25.351562 79.609375 -24 C 79.609375 -23.71875 79.578125 -23.421875 79.515625 -23.109375 C 79.460938 -22.804688 79.378906 -22.515625 79.265625 -22.234375 C 77.359375 -16.617188 75.097656 -12.195312 72.484375 -8.96875 C 69.867188 -5.738281 67.144531 -3.4375 64.3125 -2.0625 C 61.476562 -0.6875 58.65625 0 55.84375 0 C 53.375 0 51.097656 -0.460938 49.015625 -1.390625 C 46.941406 -2.316406 45.273438 -3.675781 44.015625 -5.46875 C 42.753906 -7.269531 42.125 -9.4375 42.125 -11.96875 C 42.125 -13.8125 42.457031 -15.691406 43.125 -17.609375 L 49.53125 -35.046875 C 49.75 -35.710938 49.859375 -36.328125 49.859375 -36.890625 C 49.859375 -37.679688 49.601562 -38.3125 49.09375 -38.78125 C 48.59375 -39.257812 47.953125 -39.5 47.171875 -39.5 C 45.765625 -39.5 44.359375 -38.894531 42.953125 -37.6875 C 41.554688 -36.488281 40.460938 -34.820312 39.671875 -32.6875 L 29.984375 -5.3125 C 29.367188 -3.507812 28.382812 -2.171875 27.03125 -1.296875 C 25.6875 -0.429688 24.3125 0 22.90625 0 C 21.507812 0 20.257812 -0.429688 19.15625 -1.296875 C 18.0625 -2.171875 17.515625 -3.394531 17.515625 -4.96875 C 17.515625 -5.863281 17.738281 -6.90625 18.1875 -8.09375 L 28.046875 -35.46875 C 28.273438 -35.96875 28.390625 -36.5 28.390625 -37.0625 C 28.390625 -37.851562 28.117188 -38.457031 27.578125 -38.875 C 27.046875 -39.289062 26.359375 -39.5 25.515625 -39.5 C 24.285156 -39.5 23.035156 -39.007812 21.765625 -38.03125 C 20.503906 -37.050781 19.425781 -35.660156 18.53125 -33.859375 L 8.5 -5.046875 C 7.945312 -3.367188 7.023438 -2.109375 5.734375 -1.265625 C 4.441406 -0.421875 3.0625 0 1.59375 0 C 0.132812 0 -1.164062 -0.421875 -2.3125 -1.265625 C -3.46875 -2.109375 -4.046875 -3.316406 -4.046875 -4.890625 C -4.046875 -5.554688 -3.929688 -6.226562 -3.703125 -6.90625 L 9.765625 -45.734375 C 10.273438 -46.972656 11.132812 -47.898438 12.34375 -48.515625 C 13.550781 -49.140625 14.800781 -49.453125 16.09375 -49.453125 C 17.039062 -49.453125 17.9375 -49.28125 18.78125 -48.9375 C 19.625 -48.601562 20.269531 -48.128906 20.71875 -47.515625 C 21.507812 -47.960938 22.4375 -48.394531 23.5 -48.8125 C 24.570312 -49.238281 25.976562 -49.453125 27.71875 -49.453125 C 30.1875 -49.453125 32.148438 -49.054688 33.609375 -48.265625 C 35.066406 -47.484375 36.242188 -46.585938 37.140625 -45.578125 C 39.109375 -47.140625 41.101562 -48.175781 43.125 -48.6875 C 45.144531 -49.195312 46.914062 -49.453125 48.4375 -49.453125 C 51.019531 -49.453125 53.363281 -48.972656 55.46875 -48.015625 C 57.570312 -47.054688 59.253906 -45.71875 60.515625 -44 C 61.785156 -42.289062 62.421875 -40.234375 62.421875 -37.828125 C 62.421875 -37.085938 62.347656 -36.3125 62.203125 -35.5 C 62.066406 -34.6875 61.859375 -33.890625 61.578125 -33.109375 L 54.421875 -13.484375 C 54.359375 -13.304688 54.3125 -13.117188 54.28125 -12.921875 C 54.257812 -12.734375 54.25 -12.523438 54.25 -12.296875 C 54.25 -11.679688 54.457031 -11.148438 54.875 -10.703125 C 55.300781 -10.253906 55.9375 -10.03125 56.78125 -10.03125 C 58.738281 -10.03125 60.8125 -11.132812 63 -13.34375 C 65.195312 -15.5625 67.222656 -19.203125 69.078125 -24.265625 C 69.523438 -25.609375 70.28125 -26.601562 71.34375 -27.25 C 72.414062 -27.894531 73.507812 -28.21875 74.625 -28.21875 Z M 74.625 -28.21875 "/></g></g></g><g fill="#ff5757" fill-opacity="1"><g transform="translate(268.947065, 112.396784)"><g><path d="M 47 -24.265625 C 47.445312 -25.660156 48.21875 -26.679688 49.3125 -27.328125 C 50.414062 -27.972656 51.523438 -28.296875 52.640625 -28.296875 C 53.929688 -28.296875 55.082031 -27.945312 56.09375 -27.25 C 57.101562 -26.550781 57.609375 -25.523438 57.609375 -24.171875 C 57.609375 -23.609375 57.46875 -22.960938 57.1875 -22.234375 C 55.28125 -16.785156 53.035156 -12.429688 50.453125 -9.171875 C 47.867188 -5.921875 45.128906 -3.578125 42.234375 -2.140625 C 39.347656 -0.710938 36.472656 0 33.609375 0 C 31.253906 0 29.035156 -0.445312 26.953125 -1.34375 C 24.878906 -2.25 23.207031 -3.582031 21.9375 -5.34375 C 20.675781 -7.113281 20.046875 -9.289062 20.046875 -11.875 C 20.046875 -12.769531 20.144531 -13.679688 20.34375 -14.609375 C 20.539062 -15.535156 20.804688 -16.476562 21.140625 -17.4375 L 27.296875 -34.78125 C 27.578125 -35.625 27.71875 -36.328125 27.71875 -36.890625 C 27.71875 -37.679688 27.476562 -38.3125 27 -38.78125 C 26.519531 -39.257812 25.890625 -39.5 25.109375 -39.5 C 23.921875 -39.5 22.640625 -38.992188 21.265625 -37.984375 C 19.890625 -36.972656 18.640625 -35.398438 17.515625 -33.265625 C 16.566406 -30.578125 15.515625 -27.585938 14.359375 -24.296875 C 13.210938 -21.015625 12.0625 -17.742188 10.90625 -14.484375 C 9.757812 -11.234375 8.679688 -8.226562 7.671875 -5.46875 C 7.046875 -3.5625 5.988281 -2.144531 4.5 -1.21875 C 3.019531 -0.289062 1.546875 0.171875 0.078125 0.171875 C -1.265625 0.171875 -2.453125 -0.21875 -3.484375 -1 C -4.523438 -1.789062 -5.046875 -2.972656 -5.046875 -4.546875 C -5.046875 -5.273438 -4.9375 -5.976562 -4.71875 -6.65625 L 9.34375 -45.984375 C 9.800781 -47.171875 10.535156 -48.046875 11.546875 -48.609375 C 12.554688 -49.171875 13.648438 -49.453125 14.828125 -49.453125 C 15.953125 -49.453125 16.988281 -49.253906 17.9375 -48.859375 C 18.894531 -48.460938 19.484375 -47.875 19.703125 -47.09375 C 21.835938 -48.664062 24.535156 -49.453125 27.796875 -49.453125 C 30.046875 -49.453125 32.109375 -48.929688 33.984375 -47.890625 C 35.867188 -46.847656 37.382812 -45.441406 38.53125 -43.671875 C 39.6875 -41.898438 40.265625 -39.894531 40.265625 -37.65625 C 40.265625 -36.300781 39.957031 -34.753906 39.34375 -33.015625 L 32.765625 -14.3125 C 32.484375 -13.363281 32.34375 -12.664062 32.34375 -12.21875 C 32.34375 -10.757812 33.128906 -10.03125 34.703125 -10.03125 C 36.671875 -10.03125 38.75 -11.132812 40.9375 -13.34375 C 43.125 -15.5625 45.144531 -19.203125 47 -24.265625 Z M 47 -24.265625 "/></g></g></g><g fill="#ff5757" fill-opacity="1"><g transform="translate(313.170123, 112.396784)"><g><path d="M 30.078125 -23.75 C 30.578125 -25.101562 31.347656 -26.085938 32.390625 -26.703125 C 33.429688 -27.316406 34.484375 -27.625 35.546875 -27.625 C 36.835938 -27.625 38 -27.257812 39.03125 -26.53125 C 40.070312 -25.800781 40.59375 -24.789062 40.59375 -23.5 C 40.59375 -23.28125 40.566406 -23.015625 40.515625 -22.703125 C 40.460938 -22.390625 40.378906 -22.09375 40.265625 -21.8125 C 37.847656 -14.90625 34.488281 -9.539062 30.1875 -5.71875 C 25.894531 -1.90625 21.054688 0 15.671875 0 C 12.804688 0 10.125 -0.53125 7.625 -1.59375 C 5.125 -2.664062 3.113281 -4.222656 1.59375 -6.265625 C 0.0820312 -8.316406 -0.671875 -10.773438 -0.671875 -13.640625 C -0.671875 -15.378906 -0.332031 -17.265625 0.34375 -19.296875 L 0.34375 -19.203125 L 7.40625 -39.5 L 4.640625 -39.5 C 3.515625 -39.5 2.613281 -39.9375 1.9375 -40.8125 C 1.257812 -41.6875 0.921875 -42.710938 0.921875 -43.890625 C 0.921875 -45.234375 1.441406 -46.492188 2.484375 -47.671875 C 3.523438 -48.859375 5.164062 -49.453125 7.40625 -49.453125 L 10.953125 -49.453125 L 17.6875 -68.234375 C 18.195312 -69.691406 19 -70.867188 20.09375 -71.765625 C 21.1875 -72.660156 22.4375 -73.109375 23.84375 -73.109375 C 25.695312 -73.109375 27.140625 -72.5625 28.171875 -71.46875 C 29.210938 -70.375 29.734375 -69.039062 29.734375 -67.46875 C 29.734375 -67.019531 29.648438 -66.488281 29.484375 -65.875 L 23.84375 -49.453125 L 27.625 -49.453125 C 29.257812 -49.453125 30.441406 -49.039062 31.171875 -48.21875 C 31.898438 -47.40625 32.265625 -46.4375 32.265625 -45.3125 C 32.265625 -43.914062 31.703125 -42.597656 30.578125 -41.359375 C 29.453125 -40.117188 27.820312 -39.5 25.6875 -39.5 L 20.21875 -39.5 L 11.96875 -16 C 11.90625 -15.71875 11.832031 -15.410156 11.75 -15.078125 C 11.664062 -14.742188 11.625 -14.4375 11.625 -14.15625 C 11.625 -13.03125 12.054688 -12.0625 12.921875 -11.25 C 13.796875 -10.4375 14.992188 -10.03125 16.515625 -10.03125 C 18.984375 -10.03125 21.4375 -11.164062 23.875 -13.4375 C 26.320312 -15.707031 28.390625 -19.144531 30.078125 -23.75 Z M 30.078125 -23.75 "/></g></g></g><g fill="#f00b51" fill-opacity="1"><g transform="translate(34.261032, 112.396784)"><g><path d="M 45.734375 -26.78125 C 46.078125 -27.789062 46.664062 -28.519531 47.5 -28.96875 C 48.34375 -29.425781 49.21875 -29.65625 50.125 -29.65625 C 51.519531 -29.65625 52.820312 -29.242188 54.03125 -28.421875 C 55.238281 -27.609375 55.84375 -26.503906 55.84375 -25.109375 C 55.84375 -24.710938 55.757812 -24.257812 55.59375 -23.75 C 54.582031 -20.550781 52.992188 -17.84375 50.828125 -15.625 C 48.671875 -13.40625 46.171875 -11.71875 43.328125 -10.5625 C 40.492188 -9.414062 37.59375 -8.84375 34.625 -8.84375 C 33.5 -8.84375 32.429688 -8.925781 31.421875 -9.09375 C 29.617188 -5.726562 27.171875 -3.367188 24.078125 -2.015625 C 20.992188 -0.671875 17.910156 0 14.828125 0 C 12.015625 0 9.382812 -0.53125 6.9375 -1.59375 C 4.5 -2.664062 2.535156 -4.238281 1.046875 -6.3125 C -0.429688 -8.394531 -1.171875 -10.976562 -1.171875 -14.0625 C -1.171875 -16.195312 -0.78125 -18.359375 0 -20.546875 C 1.800781 -25.773438 3.582031 -30.898438 5.34375 -35.921875 C 7.113281 -40.953125 8.925781 -46.09375 10.78125 -51.34375 C 12.632812 -56.59375 14.570312 -62.164062 16.59375 -68.0625 C 17.207031 -69.800781 18.085938 -71.078125 19.234375 -71.890625 C 20.390625 -72.703125 21.613281 -73.109375 22.90625 -73.109375 C 24.375 -73.109375 25.707031 -72.628906 26.90625 -71.671875 C 28.113281 -70.722656 28.71875 -69.351562 28.71875 -67.5625 C 28.71875 -67.101562 28.660156 -66.632812 28.546875 -66.15625 C 28.441406 -65.6875 28.304688 -65.171875 28.140625 -64.609375 L 22.65625 -48.859375 C 23.894531 -49.253906 25.242188 -49.453125 26.703125 -49.453125 C 29.171875 -49.453125 31.441406 -48.875 33.515625 -47.71875 C 35.597656 -46.5625 37.253906 -44.957031 38.484375 -42.90625 C 39.722656 -40.863281 40.34375 -38.46875 40.34375 -35.71875 C 40.34375 -33.632812 39.921875 -31.441406 39.078125 -29.140625 L 35.296875 -18.875 L 35.71875 -18.875 C 37.957031 -18.875 39.960938 -19.585938 41.734375 -21.015625 C 43.503906 -22.453125 44.835938 -24.375 45.734375 -26.78125 Z M 20.71875 -14.484375 C 18.925781 -16.566406 18.03125 -18.84375 18.03125 -21.3125 C 18.03125 -23.445312 18.742188 -25.257812 20.171875 -26.75 C 21.609375 -28.238281 23.363281 -28.984375 25.4375 -28.984375 C 25.71875 -28.984375 25.816406 -29.007812 25.734375 -29.0625 C 25.648438 -29.113281 25.71875 -29.085938 25.9375 -28.984375 L 27.71875 -34.03125 C 27.9375 -34.644531 28.046875 -35.289062 28.046875 -35.96875 C 28.046875 -37.03125 27.707031 -37.882812 27.03125 -38.53125 C 26.363281 -39.175781 25.46875 -39.5 24.34375 -39.5 C 23.101562 -39.5 21.863281 -39.019531 20.625 -38.0625 C 19.394531 -37.113281 18.359375 -35.851562 17.515625 -34.28125 C 16.453125 -31.082031 15.414062 -28.0625 14.40625 -25.21875 C 13.394531 -22.382812 12.328125 -19.394531 11.203125 -16.25 C 11.035156 -15.800781 10.921875 -15.363281 10.859375 -14.9375 C 10.804688 -14.519531 10.78125 -14.117188 10.78125 -13.734375 C 10.78125 -12.554688 11.144531 -11.644531 11.875 -11 C 12.601562 -10.351562 13.585938 -10.03125 14.828125 -10.03125 C 15.953125 -10.03125 17.0625 -10.304688 18.15625 -10.859375 C 19.25 -11.421875 20.046875 -12.40625 20.546875 -13.8125 Z M 20.71875 -14.484375 "/></g></g></g><g fill="#f00b51" fill-opacity="1"><g transform="translate(76.294, 112.396784)"><g><path d="M 52.8125 -28.46875 C 54.050781 -28.46875 55.132812 -28.101562 56.0625 -27.375 C 56.988281 -26.644531 57.453125 -25.550781 57.453125 -24.09375 C 57.453125 -23.363281 57.253906 -22.4375 56.859375 -21.3125 C 56.460938 -20.1875 55.957031 -18.8125 55.34375 -17.1875 C 53.539062 -12.632812 51.390625 -9.125 48.890625 -6.65625 C 46.398438 -4.1875 43.816406 -2.457031 41.140625 -1.46875 C 38.472656 -0.488281 35.960938 0 33.609375 0 C 32.765625 0 31.625 -0.109375 30.1875 -0.328125 C 28.757812 -0.554688 27.328125 -0.992188 25.890625 -1.640625 C 24.460938 -2.285156 23.300781 -3.253906 22.40625 -4.546875 C 20.832031 -3.140625 19.078125 -2.03125 17.140625 -1.21875 C 15.203125 -0.40625 13.25 0 11.28125 0 C 8.8125 0 6.59375 -0.570312 4.625 -1.71875 C 2.664062 -2.875 1.113281 -4.421875 -0.03125 -6.359375 C -1.1875 -8.296875 -1.765625 -10.414062 -1.765625 -12.71875 C -1.765625 -13.507812 -1.679688 -14.28125 -1.515625 -15.03125 C -1.347656 -15.789062 -1.148438 -16.535156 -0.921875 -17.265625 L 6.984375 -39.921875 C 8.109375 -43.179688 10.019531 -45.582031 12.71875 -47.125 C 15.414062 -48.675781 18.140625 -49.453125 20.890625 -49.453125 C 23.023438 -49.453125 24.890625 -49.195312 26.484375 -48.6875 C 28.085938 -48.175781 29.335938 -47.644531 30.234375 -47.09375 C 30.910156 -48.15625 31.8125 -48.953125 32.9375 -49.484375 C 34.0625 -50.015625 35.210938 -50.28125 36.390625 -50.28125 C 37.960938 -50.28125 39.378906 -49.800781 40.640625 -48.84375 C 41.898438 -47.894531 42.53125 -46.492188 42.53125 -44.640625 C 42.53125 -43.796875 42.363281 -42.867188 42.03125 -41.859375 L 32.59375 -14.578125 C 32.3125 -13.566406 32.171875 -12.75 32.171875 -12.125 C 32.171875 -10.726562 32.929688 -10.03125 34.453125 -10.03125 C 35.742188 -10.03125 37.132812 -10.460938 38.625 -11.328125 C 40.113281 -12.203125 41.585938 -13.648438 43.046875 -15.671875 C 44.503906 -17.691406 45.765625 -20.414062 46.828125 -23.84375 C 47.335938 -25.46875 48.164062 -26.644531 49.3125 -27.375 C 50.46875 -28.101562 51.632812 -28.46875 52.8125 -28.46875 Z M 25.015625 -29.3125 C 25.691406 -31.445312 26.03125 -33.101562 26.03125 -34.28125 C 26.03125 -35.738281 25.664062 -36.847656 24.9375 -37.609375 C 24.207031 -38.367188 23.445312 -38.75 22.65625 -38.75 C 21.976562 -38.75 21.117188 -38.425781 20.078125 -37.78125 C 19.046875 -37.132812 18.140625 -35.519531 17.359375 -32.9375 L 11.96875 -16 C 11.851562 -15.613281 11.738281 -15.179688 11.625 -14.703125 C 11.507812 -14.222656 11.453125 -13.703125 11.453125 -13.140625 C 11.453125 -11.066406 12.378906 -10.03125 14.234375 -10.03125 C 15.128906 -10.03125 16.25 -10.460938 17.59375 -11.328125 C 18.945312 -12.203125 20.070312 -14.015625 20.96875 -16.765625 Z M 25.015625 -29.3125 "/></g></g></g><g fill="#f00b51" fill-opacity="1"><g transform="translate(120.517069, 112.396784)"><g><path d="M 44.734375 -23.84375 C 45.179688 -25.070312 45.867188 -25.953125 46.796875 -26.484375 C 47.722656 -27.023438 48.691406 -27.296875 49.703125 -27.296875 C 51.046875 -27.296875 52.289062 -26.898438 53.4375 -26.109375 C 54.59375 -25.328125 55.171875 -24.316406 55.171875 -23.078125 C 55.171875 -22.910156 55.171875 -22.726562 55.171875 -22.53125 C 55.171875 -22.332031 55.113281 -22.148438 55 -21.984375 C 53.039062 -16.316406 50.347656 -11.835938 46.921875 -8.546875 C 43.492188 -5.265625 39.585938 -2.921875 35.203125 -1.515625 C 30.828125 -0.109375 26.195312 0.59375 21.3125 0.59375 C 16.375 0.59375 12.175781 -0.0507812 8.71875 -1.34375 C 5.257812 -2.632812 2.628906 -4.390625 0.828125 -6.609375 C -0.960938 -8.828125 -1.859375 -11.3125 -1.859375 -14.0625 C -1.859375 -15.863281 -1.546875 -17.691406 -0.921875 -19.546875 C -0.304688 -21.398438 0.628906 -23.039062 1.890625 -24.46875 C 3.160156 -25.90625 4.71875 -26.847656 6.5625 -27.296875 C 8.25 -30.441406 9.960938 -33.628906 11.703125 -36.859375 C 13.441406 -40.085938 15.128906 -43.300781 16.765625 -46.5 C 17.546875 -48.125 18.679688 -49.34375 20.171875 -50.15625 C 21.660156 -50.976562 23.191406 -51.390625 24.765625 -51.390625 C 26.898438 -51.390625 28.597656 -50.671875 29.859375 -49.234375 C 31.117188 -47.804688 31.75 -46.191406 31.75 -44.390625 C 31.75 -43.148438 31.34375 -41.925781 30.53125 -40.71875 C 29.71875 -39.519531 28.722656 -38.664062 27.546875 -38.15625 C 27.710938 -36.863281 28.160156 -35.515625 28.890625 -34.109375 C 29.617188 -32.710938 30.40625 -31.28125 31.25 -29.8125 C 32.425781 -27.851562 33.546875 -25.734375 34.609375 -23.453125 C 35.679688 -21.179688 36.21875 -18.8125 36.21875 -16.34375 C 36.21875 -15.78125 36.1875 -15.242188 36.125 -14.734375 C 36.070312 -14.234375 35.992188 -13.703125 35.890625 -13.140625 C 37.847656 -14.265625 39.554688 -15.707031 41.015625 -17.46875 C 42.484375 -19.238281 43.722656 -21.363281 44.734375 -23.84375 Z M 18.03125 -26.109375 C 18.757812 -25.378906 19.289062 -24.550781 19.625 -23.625 C 19.957031 -22.695312 20.125 -21.757812 20.125 -20.8125 C 20.125 -18.726562 19.453125 -16.828125 18.109375 -15.109375 C 16.765625 -13.398438 14.851562 -12.546875 12.375 -12.546875 C 12.101562 -12.546875 11.796875 -12.5625 11.453125 -12.59375 C 11.117188 -12.625 10.78125 -12.664062 10.4375 -12.71875 C 10.894531 -11.65625 11.710938 -10.8125 12.890625 -10.1875 C 14.066406 -9.570312 15.359375 -9.265625 16.765625 -9.265625 C 19.003906 -9.378906 20.65625 -10.148438 21.71875 -11.578125 C 22.789062 -13.015625 23.328125 -14.710938 23.328125 -16.671875 C 23.328125 -18.640625 22.890625 -20.59375 22.015625 -22.53125 C 21.148438 -24.46875 20.070312 -26.195312 18.78125 -27.71875 Z M 18.03125 -26.109375 "/></g></g></g><g fill="#f00b51" fill-opacity="1"><g transform="translate(162.550038, 112.396784)"><g><path d="M 48.015625 -24.421875 C 48.460938 -25.828125 49.175781 -26.835938 50.15625 -27.453125 C 51.144531 -28.078125 52.171875 -28.390625 53.234375 -28.390625 C 54.585938 -28.390625 55.796875 -27.992188 56.859375 -27.203125 C 57.921875 -26.421875 58.453125 -25.382812 58.453125 -24.09375 C 58.453125 -23.644531 58.367188 -23.109375 58.203125 -22.484375 C 56.179688 -16.648438 53.878906 -12.101562 51.296875 -8.84375 C 48.710938 -5.582031 46.015625 -3.289062 43.203125 -1.96875 C 40.398438 -0.65625 37.648438 0 34.953125 0 C 32.597656 0 30.351562 -0.445312 28.21875 -1.34375 C 26.082031 -2.25 24.351562 -3.597656 23.03125 -5.390625 C 21.71875 -7.191406 21.0625 -9.410156 21.0625 -12.046875 C 21.0625 -13.734375 21.394531 -15.585938 22.0625 -17.609375 L 28.21875 -35.203125 C 28.445312 -35.660156 28.5625 -36.164062 28.5625 -36.71875 C 28.5625 -37.507812 28.289062 -38.171875 27.75 -38.703125 C 27.21875 -39.234375 26.53125 -39.5 25.6875 -39.5 C 24.394531 -39.5 23.085938 -38.96875 21.765625 -37.90625 C 20.453125 -36.84375 19.347656 -35.492188 18.453125 -33.859375 L 8.25 -5.046875 C 7.632812 -3.304688 6.75 -2.03125 5.59375 -1.21875 C 4.445312 -0.40625 3.253906 0 2.015625 0 C 0.617188 0 -0.664062 -0.546875 -1.84375 -1.640625 C -3.03125 -2.734375 -3.625 -4.238281 -3.625 -6.15625 C -3.625 -7.21875 -3.425781 -8.3125 -3.03125 -9.4375 L 17.1875 -66.71875 C 17.96875 -68.957031 18.90625 -70.582031 20 -71.59375 C 21.09375 -72.601562 22.457031 -73.109375 24.09375 -73.109375 C 25.5 -73.109375 26.773438 -72.628906 27.921875 -71.671875 C 29.078125 -70.722656 29.65625 -69.351562 29.65625 -67.5625 C 29.65625 -67 29.566406 -66.40625 29.390625 -65.78125 C 29.222656 -65.164062 29.03125 -64.519531 28.8125 -63.84375 L 23.5 -48.34375 C 25.1875 -49.082031 26.984375 -49.453125 28.890625 -49.453125 C 31.191406 -49.453125 33.253906 -48.914062 35.078125 -47.84375 C 36.910156 -46.78125 38.359375 -45.347656 39.421875 -43.546875 C 40.484375 -41.753906 41.015625 -39.734375 41.015625 -37.484375 C 41.015625 -36.753906 40.957031 -36.007812 40.84375 -35.25 C 40.738281 -34.488281 40.546875 -33.71875 40.265625 -32.9375 L 33.359375 -13.3125 C 33.191406 -12.96875 33.109375 -12.601562 33.109375 -12.21875 C 33.109375 -11.59375 33.34375 -11.070312 33.8125 -10.65625 C 34.289062 -10.238281 34.925781 -10.03125 35.71875 -10.03125 C 37.625 -10.03125 39.6875 -11.164062 41.90625 -13.4375 C 44.125 -15.707031 46.160156 -19.367188 48.015625 -24.421875 Z M 48.015625 -24.421875 "/></g></g></g><g fill="#f00b51" fill-opacity="1"><g transform="translate(207.699678, 112.396784)"><g><path d="M 74.625 -28.21875 C 75.914062 -28.21875 77.066406 -27.851562 78.078125 -27.125 C 79.097656 -26.394531 79.609375 -25.351562 79.609375 -24 C 79.609375 -23.71875 79.578125 -23.421875 79.515625 -23.109375 C 79.460938 -22.804688 79.378906 -22.515625 79.265625 -22.234375 C 77.359375 -16.617188 75.097656 -12.195312 72.484375 -8.96875 C 69.867188 -5.738281 67.144531 -3.4375 64.3125 -2.0625 C 61.476562 -0.6875 58.65625 0 55.84375 0 C 53.375 0 51.097656 -0.460938 49.015625 -1.390625 C 46.941406 -2.316406 45.273438 -3.675781 44.015625 -5.46875 C 42.753906 -7.269531 42.125 -9.4375 42.125 -11.96875 C 42.125 -13.8125 42.457031 -15.691406 43.125 -17.609375 L 49.53125 -35.046875 C 49.75 -35.710938 49.859375 -36.328125 49.859375 -36.890625 C 49.859375 -37.679688 49.601562 -38.3125 49.09375 -38.78125 C 48.59375 -39.257812 47.953125 -39.5 47.171875 -39.5 C 45.765625 -39.5 44.359375 -38.894531 42.953125 -37.6875 C 41.554688 -36.488281 40.460938 -34.820312 39.671875 -32.6875 L 29.984375 -5.3125 C 29.367188 -3.507812 28.382812 -2.171875 27.03125 -1.296875 C 25.6875 -0.429688 24.3125 0 22.90625 0 C 21.507812 0 20.257812 -0.429688 19.15625 -1.296875 C 18.0625 -2.171875 17.515625 -3.394531 17.515625 -4.96875 C 17.515625 -5.863281 17.738281 -6.90625 18.1875 -8.09375 L 28.046875 -35.46875 C 28.273438 -35.96875 28.390625 -36.5 28.390625 -37.0625 C 28.390625 -37.851562 28.117188 -38.457031 27.578125 -38.875 C 27.046875 -39.289062 26.359375 -39.5 25.515625 -39.5 C 24.285156 -39.5 23.035156 -39.007812 21.765625 -38.03125 C 20.503906 -37.050781 19.425781 -35.660156 18.53125 -33.859375 L 8.5 -5.046875 C 7.945312 -3.367188 7.023438 -2.109375 5.734375 -1.265625 C 4.441406 -0.421875 3.0625 0 1.59375 0 C 0.132812 0 -1.164062 -0.421875 -2.3125 -1.265625 C -3.46875 -2.109375 -4.046875 -3.316406 -4.046875 -4.890625 C -4.046875 -5.554688 -3.929688 -6.226562 -3.703125 -6.90625 L 9.765625 -45.734375 C 10.273438 -46.972656 11.132812 -47.898438 12.34375 -48.515625 C 13.550781 -49.140625 14.800781 -49.453125 16.09375 -49.453125 C 17.039062 -49.453125 17.9375 -49.28125 18.78125 -48.9375 C 19.625 -48.601562 20.269531 -48.128906 20.71875 -47.515625 C 21.507812 -47.960938 22.4375 -48.394531 23.5 -48.8125 C 24.570312 -49.238281 25.976562 -49.453125 27.71875 -49.453125 C 30.1875 -49.453125 32.148438 -49.054688 33.609375 -48.265625 C 35.066406 -47.484375 36.242188 -46.585938 37.140625 -45.578125 C 39.109375 -47.140625 41.101562 -48.175781 43.125 -48.6875 C 45.144531 -49.195312 46.914062 -49.453125 48.4375 -49.453125 C 51.019531 -49.453125 53.363281 -48.972656 55.46875 -48.015625 C 57.570312 -47.054688 59.253906 -45.71875 60.515625 -44 C 61.785156 -42.289062 62.421875 -40.234375 62.421875 -37.828125 C 62.421875 -37.085938 62.347656 -36.3125 62.203125 -35.5 C 62.066406 -34.6875 61.859375 -33.890625 61.578125 -33.109375 L 54.421875 -13.484375 C 54.359375 -13.304688 54.3125 -13.117188 54.28125 -12.921875 C 54.257812 -12.734375 54.25 -12.523438 54.25 -12.296875 C 54.25 -11.679688 54.457031 -11.148438 54.875 -10.703125 C 55.300781 -10.253906 55.9375 -10.03125 56.78125 -10.03125 C 58.738281 -10.03125 60.8125 -11.132812 63 -13.34375 C 65.195312 -15.5625 67.222656 -19.203125 69.078125 -24.265625 C 69.523438 -25.609375 70.28125 -26.601562 71.34375 -27.25 C 72.414062 -27.894531 73.507812 -28.21875 74.625 -28.21875 Z M 74.625 -28.21875 "/></g></g></g><g fill="#f00b51" fill-opacity="1"><g transform="translate(273.907922, 112.396784)"><g><path d="M 47 -24.265625 C 47.445312 -25.660156 48.21875 -26.679688 49.3125 -27.328125 C 50.414062 -27.972656 51.523438 -28.296875 52.640625 -28.296875 C 53.929688 -28.296875 55.082031 -27.945312 56.09375 -27.25 C 57.101562 -26.550781 57.609375 -25.523438 57.609375 -24.171875 C 57.609375 -23.609375 57.46875 -22.960938 57.1875 -22.234375 C 55.28125 -16.785156 53.035156 -12.429688 50.453125 -9.171875 C 47.867188 -5.921875 45.128906 -3.578125 42.234375 -2.140625 C 39.347656 -0.710938 36.472656 0 33.609375 0 C 31.253906 0 29.035156 -0.445312 26.953125 -1.34375 C 24.878906 -2.25 23.207031 -3.582031 21.9375 -5.34375 C 20.675781 -7.113281 20.046875 -9.289062 20.046875 -11.875 C 20.046875 -12.769531 20.144531 -13.679688 20.34375 -14.609375 C 20.539062 -15.535156 20.804688 -16.476562 21.140625 -17.4375 L 27.296875 -34.78125 C 27.578125 -35.625 27.71875 -36.328125 27.71875 -36.890625 C 27.71875 -37.679688 27.476562 -38.3125 27 -38.78125 C 26.519531 -39.257812 25.890625 -39.5 25.109375 -39.5 C 23.921875 -39.5 22.640625 -38.992188 21.265625 -37.984375 C 19.890625 -36.972656 18.640625 -35.398438 17.515625 -33.265625 C 16.566406 -30.578125 15.515625 -27.585938 14.359375 -24.296875 C 13.210938 -21.015625 12.0625 -17.742188 10.90625 -14.484375 C 9.757812 -11.234375 8.679688 -8.226562 7.671875 -5.46875 C 7.046875 -3.5625 5.988281 -2.144531 4.5 -1.21875 C 3.019531 -0.289062 1.546875 0.171875 0.078125 0.171875 C -1.265625 0.171875 -2.453125 -0.21875 -3.484375 -1 C -4.523438 -1.789062 -5.046875 -2.972656 -5.046875 -4.546875 C -5.046875 -5.273438 -4.9375 -5.976562 -4.71875 -6.65625 L 9.34375 -45.984375 C 9.800781 -47.171875 10.535156 -48.046875 11.546875 -48.609375 C 12.554688 -49.171875 13.648438 -49.453125 14.828125 -49.453125 C 15.953125 -49.453125 16.988281 -49.253906 17.9375 -48.859375 C 18.894531 -48.460938 19.484375 -47.875 19.703125 -47.09375 C 21.835938 -48.664062 24.535156 -49.453125 27.796875 -49.453125 C 30.046875 -49.453125 32.109375 -48.929688 33.984375 -47.890625 C 35.867188 -46.847656 37.382812 -45.441406 38.53125 -43.671875 C 39.6875 -41.898438 40.265625 -39.894531 40.265625 -37.65625 C 40.265625 -36.300781 39.957031 -34.753906 39.34375 -33.015625 L 32.765625 -14.3125 C 32.484375 -13.363281 32.34375 -12.664062 32.34375 -12.21875 C 32.34375 -10.757812 33.128906 -10.03125 34.703125 -10.03125 C 36.671875 -10.03125 38.75 -11.132812 40.9375 -13.34375 C 43.125 -15.5625 45.144531 -19.203125 47 -24.265625 Z M 47 -24.265625 "/></g></g></g><g fill="#f00b51" fill-opacity="1"><g transform="translate(318.13098, 112.396784)"><g><path d="M 30.078125 -23.75 C 30.578125 -25.101562 31.347656 -26.085938 32.390625 -26.703125 C 33.429688 -27.316406 34.484375 -27.625 35.546875 -27.625 C 36.835938 -27.625 38 -27.257812 39.03125 -26.53125 C 40.070312 -25.800781 40.59375 -24.789062 40.59375 -23.5 C 40.59375 -23.28125 40.566406 -23.015625 40.515625 -22.703125 C 40.460938 -22.390625 40.378906 -22.09375 40.265625 -21.8125 C 37.847656 -14.90625 34.488281 -9.539062 30.1875 -5.71875 C 25.894531 -1.90625 21.054688 0 15.671875 0 C 12.804688 0 10.125 -0.53125 7.625 -1.59375 C 5.125 -2.664062 3.113281 -4.222656 1.59375 -6.265625 C 0.0820312 -8.316406 -0.671875 -10.773438 -0.671875 -13.640625 C -0.671875 -15.378906 -0.332031 -17.265625 0.34375 -19.296875 L 0.34375 -19.203125 L 7.40625 -39.5 L 4.640625 -39.5 C 3.515625 -39.5 2.613281 -39.9375 1.9375 -40.8125 C 1.257812 -41.6875 0.921875 -42.710938 0.921875 -43.890625 C 0.921875 -45.234375 1.441406 -46.492188 2.484375 -47.671875 C 3.523438 -48.859375 5.164062 -49.453125 7.40625 -49.453125 L 10.953125 -49.453125 L 17.6875 -68.234375 C 18.195312 -69.691406 19 -70.867188 20.09375 -71.765625 C 21.1875 -72.660156 22.4375 -73.109375 23.84375 -73.109375 C 25.695312 -73.109375 27.140625 -72.5625 28.171875 -71.46875 C 29.210938 -70.375 29.734375 -69.039062 29.734375 -67.46875 C 29.734375 -67.019531 29.648438 -66.488281 29.484375 -65.875 L 23.84375 -49.453125 L 27.625 -49.453125 C 29.257812 -49.453125 30.441406 -49.039062 31.171875 -48.21875 C 31.898438 -47.40625 32.265625 -46.4375 32.265625 -45.3125 C 32.265625 -43.914062 31.703125 -42.597656 30.578125 -41.359375 C 29.453125 -40.117188 27.820312 -39.5 25.6875 -39.5 L 20.21875 -39.5 L 11.96875 -16 C 11.90625 -15.71875 11.832031 -15.410156 11.75 -15.078125 C 11.664062 -14.742188 11.625 -14.4375 11.625 -14.15625 C 11.625 -13.03125 12.054688 -12.0625 12.921875 -11.25 C 13.796875 -10.4375 14.992188 -10.03125 16.515625 -10.03125 C 18.984375 -10.03125 21.4375 -11.164062 23.875 -13.4375 C 26.320312 -15.707031 28.390625 -19.144531 30.078125 -23.75 Z M 30.078125 -23.75 "/></g></g></g></svg>