<svg xmlns="http://www.w3.org/2000/svg" xmlns:xlink="http://www.w3.org/1999/xlink" width="500" zoomAndPan="magnify" viewBox="0 0 375 374.999991" height="500" preserveAspectRatio="xMidYMid meet" version="1.0"><defs><g/></defs><g fill="#c1ff72" fill-opacity="1"><g transform="translate(81.222647, 337.601955)"><g><path d="M 239.046875 -284.15625 L 239.046875 -100.921875 C 239.046875 -66.015625 229.628906 -39.601562 210.796875 -21.6875 C 191.960938 -3.78125 164.40625 5.171875 128.125 5.171875 C 91.84375 5.171875 64.285156 -3.78125 45.453125 -21.6875 C 26.628906 -39.601562 17.21875 -66.015625 17.21875 -100.921875 L 17.21875 -284.15625 L 81.96875 -284.15625 L 81.96875 -119.859375 C 81.96875 -96.898438 85.582031 -80.941406 92.8125 -71.984375 C 100.050781 -63.023438 111.820312 -58.546875 128.125 -58.546875 C 144.425781 -58.546875 156.191406 -63.023438 163.421875 -71.984375 C 170.660156 -80.941406 174.28125 -96.898438 174.28125 -119.859375 L 174.28125 -284.15625 Z M 239.046875 -284.15625 "/></g></g></g><g fill="#7ed957" fill-opacity="1"><g transform="translate(50.898481, 337.601955)"><g><path d="M 239.046875 -284.15625 L 239.046875 -100.921875 C 239.046875 -66.015625 229.628906 -39.601562 210.796875 -21.6875 C 191.960938 -3.78125 164.40625 5.171875 128.125 5.171875 C 91.84375 5.171875 64.285156 -3.78125 45.453125 -21.6875 C 26.628906 -39.601562 17.21875 -66.015625 17.21875 -100.921875 L 17.21875 -284.15625 L 81.96875 -284.15625 L 81.96875 -119.859375 C 81.96875 -96.898438 85.582031 -80.941406 92.8125 -71.984375 C 100.050781 -63.023438 111.820312 -58.546875 128.125 -58.546875 C 144.425781 -58.546875 156.191406 -63.023438 163.421875 -71.984375 C 170.660156 -80.941406 174.28125 -96.898438 174.28125 -119.859375 L 174.28125 -284.15625 Z M 239.046875 -284.15625 "/></g></g></g></svg>