<svg xmlns="http://www.w3.org/2000/svg" xmlns:xlink="http://www.w3.org/1999/xlink" width="1000" zoomAndPan="magnify" viewBox="0 0 750 374.999991" height="500" preserveAspectRatio="xMidYMid meet" version="1.0"><defs><g/></defs><g fill="#c1ff72" fill-opacity="1"><g transform="translate(0.0117277, 242.613032)"><g><path d="M 140.40625 -166.90625 L 140.40625 -59.28125 C 140.40625 -38.78125 134.875 -23.269531 123.8125 -12.75 C 112.75 -2.226562 96.5625 3.03125 75.25 3.03125 C 53.945312 3.03125 37.765625 -2.226562 26.703125 -12.75 C 15.640625 -23.269531 10.109375 -38.78125 10.109375 -59.28125 L 10.109375 -166.90625 L 48.15625 -166.90625 L 48.15625 -70.40625 C 48.15625 -56.914062 50.273438 -47.539062 54.515625 -42.28125 C 58.765625 -37.019531 65.675781 -34.390625 75.25 -34.390625 C 84.832031 -34.390625 91.75 -37.019531 96 -42.28125 C 100.25 -47.539062 102.375 -56.914062 102.375 -70.40625 L 102.375 -166.90625 Z M 140.40625 -166.90625 "/></g></g></g><g fill="#c1ff72" fill-opacity="1"><g transform="translate(150.531963, 242.613032)"><g><path d="M 12.140625 0 L 12.140625 -103.78125 L 47.953125 -103.78125 L 47.953125 -92.859375 L 48.359375 -92.859375 C 57.660156 -102.171875 67.570312 -106.828125 78.09375 -106.828125 C 83.21875 -106.828125 88.304688 -106.148438 93.359375 -104.796875 C 98.421875 -103.453125 103.273438 -101.363281 107.921875 -98.53125 C 112.578125 -95.695312 116.351562 -91.679688 119.25 -86.484375 C 122.15625 -81.296875 123.609375 -75.257812 123.609375 -68.375 L 123.609375 0 L 87.796875 0 L 87.796875 -58.671875 C 87.796875 -64.066406 86.078125 -68.785156 82.640625 -72.828125 C 79.203125 -76.878906 74.71875 -78.90625 69.1875 -78.90625 C 63.789062 -78.90625 58.898438 -76.8125 54.515625 -72.625 C 50.140625 -68.445312 47.953125 -63.796875 47.953125 -58.671875 L 47.953125 0 Z M 12.140625 0 "/></g></g></g><g fill="#c1ff72" fill-opacity="1"><g transform="translate(284.260284, 242.613032)"><g><path d="M 15.578125 -161.640625 C 19.753906 -165.828125 24.742188 -167.921875 30.546875 -167.921875 C 36.347656 -167.921875 41.335938 -165.828125 45.515625 -161.640625 C 49.703125 -157.460938 51.796875 -152.472656 51.796875 -146.671875 C 51.796875 -140.878906 49.703125 -135.890625 45.515625 -131.703125 C 41.335938 -127.523438 36.347656 -125.4375 30.546875 -125.4375 C 24.742188 -125.4375 19.753906 -127.523438 15.578125 -131.703125 C 11.398438 -135.890625 9.3125 -140.878906 9.3125 -146.671875 C 9.3125 -152.472656 11.398438 -157.460938 15.578125 -161.640625 Z M 12.140625 -103.78125 L 12.140625 0 L 47.953125 0 L 47.953125 -103.78125 Z M 12.140625 -103.78125 "/></g></g></g><g fill="#c1ff72" fill-opacity="1"><g transform="translate(345.35857, 242.613032)"><g><path d="M 12.140625 0 L 12.140625 -173.984375 L 47.953125 -173.984375 L 47.953125 -92.859375 L 48.359375 -92.859375 C 57.660156 -102.171875 67.570312 -106.828125 78.09375 -106.828125 C 83.21875 -106.828125 88.304688 -106.148438 93.359375 -104.796875 C 98.421875 -103.453125 103.273438 -101.363281 107.921875 -98.53125 C 112.578125 -95.695312 116.351562 -91.679688 119.25 -86.484375 C 122.15625 -81.296875 123.609375 -75.257812 123.609375 -68.375 L 123.609375 0 L 87.796875 0 L 87.796875 -58.671875 C 87.796875 -64.066406 86.078125 -68.785156 82.640625 -72.828125 C 79.203125 -76.878906 74.71875 -78.90625 69.1875 -78.90625 C 63.789062 -78.90625 58.898438 -76.8125 54.515625 -72.625 C 50.140625 -68.445312 47.953125 -63.796875 47.953125 -58.671875 L 47.953125 0 Z M 12.140625 0 "/></g></g></g><g fill="#c1ff72" fill-opacity="1"><g transform="translate(479.086868, 242.613032)"><g><path d="M 45.921875 -103.78125 L 45.921875 -54.421875 C 45.921875 -44.171875 47.472656 -36.882812 50.578125 -32.5625 C 53.679688 -28.25 58.941406 -26.09375 66.359375 -26.09375 C 73.773438 -26.09375 79.035156 -28.25 82.140625 -32.5625 C 85.242188 -36.882812 86.796875 -44.171875 86.796875 -54.421875 L 86.796875 -103.78125 L 122.59375 -103.78125 L 122.59375 -45.71875 C 122.59375 -28.457031 118.109375 -16.015625 109.140625 -8.390625 C 100.171875 -0.773438 85.90625 3.03125 66.34375 3.03125 C 46.789062 3.03125 32.53125 -0.773438 23.5625 -8.390625 C 14.59375 -16.015625 10.109375 -28.457031 10.109375 -45.71875 L 10.109375 -103.78125 Z M 45.921875 -103.78125 "/></g></g></g><g fill="#c1ff72" fill-opacity="1"><g transform="translate(611.803672, 242.613032)"><g><path d="M 118.953125 -90.84375 C 128.671875 -80.1875 133.53125 -67.171875 133.53125 -51.796875 C 133.53125 -36.421875 128.671875 -23.4375 118.953125 -12.84375 C 109.242188 -2.257812 96.90625 3.03125 81.9375 3.03125 C 68.175781 3.03125 56.847656 -1.890625 47.953125 -11.734375 L 47.546875 -11.734375 L 47.546875 0 L 12.140625 0 L 12.140625 -173.984375 L 47.953125 -173.984375 L 47.953125 -93.875 C 56.847656 -102.507812 68.175781 -106.828125 81.9375 -106.828125 C 96.90625 -106.828125 109.242188 -101.5 118.953125 -90.84375 Z M 88.8125 -34.28125 C 93.257812 -38.800781 95.484375 -44.632812 95.484375 -51.78125 C 95.484375 -58.9375 93.15625 -64.804688 88.5 -69.390625 C 83.851562 -73.972656 78.09375 -76.265625 71.21875 -76.265625 C 64.46875 -76.265625 58.765625 -73.972656 54.109375 -69.390625 C 49.460938 -64.804688 47.140625 -58.941406 47.140625 -51.796875 C 47.140625 -44.773438 49.394531 -38.972656 53.90625 -34.390625 C 58.425781 -29.804688 64.195312 -27.515625 71.21875 -27.515625 C 78.5 -27.515625 84.363281 -29.769531 88.8125 -34.28125 Z M 88.8125 -34.28125 "/></g></g></g></svg>