<svg xmlns="http://www.w3.org/2000/svg" xmlns:xlink="http://www.w3.org/1999/xlink" width="500" zoomAndPan="magnify" viewBox="0 0 375 374.999991" height="500" preserveAspectRatio="xMidYMid meet" version="1.0"><defs><g/></defs><g fill="#ff5757" fill-opacity="1"><g transform="translate(59.242622, 339.663995)"><g><path d="M 140.078125 -90.921875 C 137.160156 -83.503906 132.894531 -78.671875 127.28125 -76.421875 C 121.664062 -74.179688 116.109375 -74.070312 110.609375 -76.09375 C 105.109375 -78.113281 100.953125 -81.59375 98.140625 -86.53125 C 95.335938 -91.46875 95.398438 -97.304688 98.328125 -104.046875 L 163.640625 -286.21875 C 166.109375 -293.175781 169.644531 -298.503906 174.25 -302.203125 C 178.851562 -305.910156 183.847656 -308.039062 189.234375 -308.59375 C 194.617188 -309.15625 199.5 -308.257812 203.875 -305.90625 C 208.257812 -303.550781 211.460938 -299.734375 213.484375 -294.453125 C 215.503906 -289.179688 215.390625 -282.617188 213.140625 -274.765625 Z M 95.625 -55.21875 C 103.476562 -55.21875 110.097656 -52.578125 115.484375 -47.296875 C 120.878906 -42.023438 123.578125 -35.460938 123.578125 -27.609375 C 123.578125 -19.972656 120.878906 -13.460938 115.484375 -8.078125 C 110.097656 -2.691406 103.476562 0 95.625 0 C 88 0 81.488281 -2.691406 76.09375 -8.078125 C 70.707031 -13.460938 68.015625 -19.972656 68.015625 -27.609375 C 68.015625 -35.460938 70.707031 -42.023438 76.09375 -47.296875 C 81.488281 -52.578125 88 -55.21875 95.625 -55.21875 Z M 95.625 -55.21875 "/></g></g></g><g fill="#f00b51" fill-opacity="1"><g transform="translate(63.857124, 348.241665)"><g><path d="M 141.765625 -92.015625 C 138.804688 -84.515625 134.488281 -79.628906 128.8125 -77.359375 C 123.132812 -75.085938 117.507812 -74.972656 111.9375 -77.015625 C 106.375 -79.054688 102.171875 -82.578125 99.328125 -87.578125 C 96.492188 -92.578125 96.554688 -98.484375 99.515625 -105.296875 L 165.625 -289.65625 C 168.125 -296.707031 171.703125 -302.101562 176.359375 -305.84375 C 181.015625 -309.59375 186.066406 -311.75 191.515625 -312.3125 C 196.972656 -312.882812 201.914062 -311.976562 206.34375 -309.59375 C 210.769531 -307.207031 214.003906 -303.34375 216.046875 -298 C 218.097656 -292.664062 217.988281 -286.023438 215.71875 -278.078125 Z M 96.78125 -55.890625 C 104.726562 -55.890625 111.425781 -53.21875 116.875 -47.875 C 122.332031 -42.539062 125.0625 -35.894531 125.0625 -27.9375 C 125.0625 -20.21875 122.332031 -13.628906 116.875 -8.171875 C 111.425781 -2.722656 104.726562 0 96.78125 0 C 89.050781 0 82.460938 -2.722656 77.015625 -8.171875 C 71.566406 -13.628906 68.84375 -20.21875 68.84375 -27.9375 C 68.84375 -35.894531 71.566406 -42.539062 77.015625 -47.875 C 82.460938 -53.21875 89.050781 -55.890625 96.78125 -55.890625 Z M 96.78125 -55.890625 "/></g></g></g></svg>