<svg xmlns="http://www.w3.org/2000/svg" xmlns:xlink="http://www.w3.org/1999/xlink" width="500" zoomAndPan="magnify" viewBox="0 0 375 374.999991" height="500" preserveAspectRatio="xMidYMid meet" version="1.0"><defs><clipPath id="40eb72bd9b"><path d="M 96.316406 100.320312 L 278.742188 100.320312 L 278.742188 212.578125 L 96.316406 212.578125 Z M 96.316406 100.320312 " clip-rule="nonzero"/></clipPath><clipPath id="0f3fa1aa0e"><path d="M 113.566406 100.320312 L 261.433594 100.320312 C 266.007812 100.320312 270.394531 102.136719 273.628906 105.371094 C 276.863281 108.605469 278.683594 112.992188 278.683594 117.570312 L 278.683594 195.328125 C 278.683594 199.90625 276.863281 204.292969 273.628906 207.527344 C 270.394531 210.761719 266.007812 212.578125 261.433594 212.578125 L 113.566406 212.578125 C 108.992188 212.578125 104.605469 210.761719 101.371094 207.527344 C 98.136719 204.292969 96.316406 199.90625 96.316406 195.328125 L 96.316406 117.570312 C 96.316406 112.992188 98.136719 108.605469 101.371094 105.371094 C 104.605469 102.136719 108.992188 100.320312 113.566406 100.320312 Z M 113.566406 100.320312 " clip-rule="nonzero"/></clipPath><clipPath id="bb0cab984f"><path d="M 212 167 L 279 167 L 279 245 L 212 245 Z M 212 167 " clip-rule="nonzero"/></clipPath><clipPath id="70d043f979"><path d="M 245.914062 148.402344 L 311.992188 186.546875 L 278.664062 244.285156 L 212.582031 206.136719 Z M 245.914062 148.402344 " clip-rule="nonzero"/></clipPath><clipPath id="5e9014fea2"><path d="M 278.90625 167.445312 L 278.566406 244.230469 L 212.582031 206.136719 Z M 278.90625 167.445312 " clip-rule="nonzero"/></clipPath><clipPath id="bba0ef3b18"><path d="M 103.902344 123.082031 L 262.339844 123.082031 L 262.339844 148.398438 L 103.902344 148.398438 Z M 103.902344 123.082031 " clip-rule="nonzero"/></clipPath><clipPath id="ea7753ce60"><path d="M 116.558594 123.082031 L 249.582031 123.082031 C 252.941406 123.082031 256.160156 124.414062 258.535156 126.789062 C 260.910156 129.164062 262.242188 132.382812 262.242188 135.742188 C 262.242188 139.097656 260.910156 142.316406 258.535156 144.691406 C 256.160156 147.066406 252.941406 148.398438 249.582031 148.398438 L 116.558594 148.398438 C 113.203125 148.398438 109.984375 147.066406 107.609375 144.691406 C 105.234375 142.316406 103.902344 139.097656 103.902344 135.742188 C 103.902344 132.382812 105.234375 129.164062 107.609375 126.789062 C 109.984375 124.414062 113.203125 123.082031 116.558594 123.082031 Z M 116.558594 123.082031 " clip-rule="nonzero"/></clipPath><clipPath id="1e4c5f98fe"><path d="M 103.902344 162.179688 L 165.515625 162.179688 L 165.515625 187.5 L 103.902344 187.5 Z M 103.902344 162.179688 " clip-rule="nonzero"/></clipPath><clipPath id="68b56ef780"><path d="M 116.558594 162.179688 L 152.847656 162.179688 C 156.207031 162.179688 159.425781 163.515625 161.800781 165.890625 C 164.171875 168.261719 165.507812 171.484375 165.507812 174.839844 C 165.507812 178.199219 164.171875 181.417969 161.800781 183.792969 C 159.425781 186.167969 156.207031 187.5 152.847656 187.5 L 116.558594 187.5 C 113.203125 187.5 109.984375 186.167969 107.609375 183.792969 C 105.234375 181.417969 103.902344 178.199219 103.902344 174.839844 C 103.902344 171.484375 105.234375 168.261719 107.609375 165.890625 C 109.984375 163.515625 113.203125 162.179688 116.558594 162.179688 Z M 116.558594 162.179688 " clip-rule="nonzero"/></clipPath><clipPath id="f46f2dd106"><path d="M 169.644531 162.179688 L 197.136719 162.179688 L 197.136719 187.5 L 169.644531 187.5 Z M 169.644531 162.179688 " clip-rule="nonzero"/></clipPath><clipPath id="24b1007394"><path d="M 182.300781 162.179688 L 184.394531 162.179688 C 187.753906 162.179688 190.972656 163.515625 193.347656 165.890625 C 195.71875 168.261719 197.054688 171.484375 197.054688 174.839844 C 197.054688 178.199219 195.71875 181.417969 193.347656 183.792969 C 190.972656 186.167969 187.753906 187.5 184.394531 187.5 L 182.300781 187.5 C 178.945312 187.5 175.726562 186.167969 173.351562 183.792969 C 170.976562 181.417969 169.644531 178.199219 169.644531 174.839844 C 169.644531 171.484375 170.976562 168.261719 173.351562 165.890625 C 175.726562 163.515625 178.945312 162.179688 182.300781 162.179688 Z M 182.300781 162.179688 " clip-rule="nonzero"/></clipPath><clipPath id="75c78cced9"><path d="M 201.554688 162.179688 L 229 162.179688 L 229 187.5 L 201.554688 187.5 Z M 201.554688 162.179688 " clip-rule="nonzero"/></clipPath><clipPath id="42f9b87b4a"><path d="M 214.214844 162.179688 L 216.304688 162.179688 C 219.664062 162.179688 222.882812 163.515625 225.257812 165.890625 C 227.632812 168.261719 228.964844 171.484375 228.964844 174.839844 C 228.964844 178.199219 227.632812 181.417969 225.257812 183.792969 C 222.882812 186.167969 219.664062 187.5 216.304688 187.5 L 214.214844 187.5 C 210.855469 187.5 207.636719 186.167969 205.261719 183.792969 C 202.886719 181.417969 201.554688 178.199219 201.554688 174.839844 C 201.554688 171.484375 202.886719 168.261719 205.261719 165.890625 C 207.636719 163.515625 210.855469 162.179688 214.214844 162.179688 Z M 214.214844 162.179688 " clip-rule="nonzero"/></clipPath></defs><g clip-path="url(#40eb72bd9b)"><g clip-path="url(#0f3fa1aa0e)"><path fill="#f00b51" d="M 96.316406 100.320312 L 278.742188 100.320312 L 278.742188 212.578125 L 96.316406 212.578125 Z M 96.316406 100.320312 " fill-opacity="1" fill-rule="nonzero"/></g></g><g clip-path="url(#bb0cab984f)"><g clip-path="url(#70d043f979)"><g clip-path="url(#5e9014fea2)"><path fill="#f00b51" d="M 245.914062 148.402344 L 311.992188 186.546875 L 278.664062 244.285156 L 212.582031 206.136719 Z M 245.914062 148.402344 " fill-opacity="1" fill-rule="nonzero"/></g></g></g><g clip-path="url(#bba0ef3b18)"><g clip-path="url(#ea7753ce60)"><path fill="#ff5757" d="M 103.902344 123.082031 L 262.242188 123.082031 L 262.242188 148.398438 L 103.902344 148.398438 Z M 103.902344 123.082031 " fill-opacity="1" fill-rule="nonzero"/></g></g><g clip-path="url(#1e4c5f98fe)"><g clip-path="url(#68b56ef780)"><path fill="#ff5757" d="M 103.902344 162.179688 L 165.515625 162.179688 L 165.515625 187.5 L 103.902344 187.5 Z M 103.902344 162.179688 " fill-opacity="1" fill-rule="nonzero"/></g></g><g clip-path="url(#f46f2dd106)"><g clip-path="url(#24b1007394)"><path fill="#ff5757" d="M 169.644531 162.179688 L 197.039062 162.179688 L 197.039062 187.5 L 169.644531 187.5 Z M 169.644531 162.179688 " fill-opacity="1" fill-rule="nonzero"/></g></g><g clip-path="url(#75c78cced9)"><g clip-path="url(#42f9b87b4a)"><path fill="#ff5757" d="M 201.554688 162.179688 L 228.949219 162.179688 L 228.949219 187.5 L 201.554688 187.5 Z M 201.554688 162.179688 " fill-opacity="1" fill-rule="nonzero"/></g></g></svg>