<svg xmlns="http://www.w3.org/2000/svg" xmlns:xlink="http://www.w3.org/1999/xlink" width="500" zoomAndPan="magnify" viewBox="0 0 375 374.999991" height="500" preserveAspectRatio="xMidYMid meet" version="1.0"><defs><clipPath id="069092fadc"><path d="M 37.5 135.550781 L 337.519531 135.550781 L 337.519531 212.820312 L 37.5 212.820312 Z M 37.5 135.550781 " clip-rule="nonzero"/></clipPath><clipPath id="3b7f5de7de"><path d="M 54.75 135.550781 L 320.25 135.550781 C 324.824219 135.550781 329.210938 137.367188 332.449219 140.601562 C 335.683594 143.835938 337.5 148.222656 337.5 152.800781 L 337.5 195.570312 C 337.5 200.144531 335.683594 204.53125 332.449219 207.765625 C 329.210938 211 324.824219 212.820312 320.25 212.820312 L 54.75 212.820312 C 50.175781 212.820312 45.789062 211 42.550781 207.765625 C 39.316406 204.53125 37.5 200.144531 37.5 195.570312 L 37.5 152.800781 C 37.5 148.222656 39.316406 143.835938 42.550781 140.601562 C 45.789062 137.367188 50.175781 135.550781 54.75 135.550781 Z M 54.75 135.550781 " clip-rule="nonzero"/></clipPath><clipPath id="cacbd9d6a1"><path d="M 148.863281 24.179688 L 226.128906 24.179688 L 226.128906 324.203125 L 148.863281 324.203125 Z M 148.863281 24.179688 " clip-rule="nonzero"/></clipPath><clipPath id="9e3662d801"><path d="M 226.128906 41.429688 L 226.128906 306.929688 C 226.128906 311.503906 224.3125 315.894531 221.078125 319.128906 C 217.84375 322.363281 213.457031 324.179688 208.878906 324.179688 L 166.113281 324.179688 C 161.535156 324.179688 157.148438 322.363281 153.914062 319.128906 C 150.679688 315.894531 148.863281 311.503906 148.863281 306.929688 L 148.863281 41.429688 C 148.863281 36.855469 150.679688 32.46875 153.914062 29.234375 C 157.148438 25.996094 161.535156 24.179688 166.113281 24.179688 L 208.878906 24.179688 C 213.457031 24.179688 217.84375 25.996094 221.078125 29.234375 C 224.3125 32.46875 226.128906 36.855469 226.128906 41.429688 Z M 226.128906 41.429688 " clip-rule="nonzero"/></clipPath></defs><g clip-path="url(#069092fadc)"><g clip-path="url(#3b7f5de7de)"><path fill="#f00b51" d="M 37.5 135.550781 L 337.519531 135.550781 L 337.519531 212.820312 L 37.5 212.820312 Z M 37.5 135.550781 " fill-opacity="1" fill-rule="nonzero"/></g></g><g clip-path="url(#cacbd9d6a1)"><g clip-path="url(#9e3662d801)"><path fill="#f00b51" d="M 226.128906 24.179688 L 226.128906 324.203125 L 148.863281 324.203125 L 148.863281 24.179688 Z M 226.128906 24.179688 " fill-opacity="1" fill-rule="nonzero"/></g></g></svg>