<svg xmlns="http://www.w3.org/2000/svg" xmlns:xlink="http://www.w3.org/1999/xlink" width="500" zoomAndPan="magnify" viewBox="0 0 375 374.999991" height="500" preserveAspectRatio="xMidYMid meet" version="1.0"><defs><clipPath id="035165db18"><path d="M 43.621094 27.945312 L 331.378906 27.945312 L 331.378906 315.703125 L 43.621094 315.703125 Z M 43.621094 27.945312 " clip-rule="nonzero"/></clipPath><clipPath id="028b059692"><path d="M 187.5 27.945312 C 108.039062 27.945312 43.621094 92.363281 43.621094 171.824219 C 43.621094 251.289062 108.039062 315.703125 187.5 315.703125 C 266.960938 315.703125 331.378906 251.289062 331.378906 171.824219 C 331.378906 92.363281 266.960938 27.945312 187.5 27.945312 Z M 187.5 27.945312 " clip-rule="nonzero"/></clipPath><clipPath id="f30d42f297"><path d="M 162.839844 46.796875 L 212.160156 46.796875 L 212.160156 161.808594 L 162.839844 161.808594 Z M 162.839844 46.796875 " clip-rule="nonzero"/></clipPath><clipPath id="7fd2b2e62d"><path d="M 180.089844 46.796875 L 194.910156 46.796875 C 199.484375 46.796875 203.871094 48.613281 207.105469 51.847656 C 210.339844 55.085938 212.160156 59.472656 212.160156 64.046875 L 212.160156 144.386719 C 212.160156 148.960938 210.339844 153.347656 207.105469 156.582031 C 203.871094 159.816406 199.484375 161.636719 194.910156 161.636719 L 180.089844 161.636719 C 175.515625 161.636719 171.128906 159.816406 167.894531 156.582031 C 164.65625 153.347656 162.839844 148.960938 162.839844 144.386719 L 162.839844 64.046875 C 162.839844 59.472656 164.65625 55.085938 167.894531 51.847656 C 171.128906 48.613281 175.515625 46.796875 180.089844 46.796875 Z M 180.089844 46.796875 " clip-rule="nonzero"/></clipPath><clipPath id="a0152099fd"><path d="M 174 178 L 250 178 L 250 268 L 174 268 Z M 174 178 " clip-rule="nonzero"/></clipPath><clipPath id="7789b549ff"><path d="M 168.082031 195.859375 L 204.523438 171.824219 L 256.253906 250.257812 L 219.8125 274.296875 Z M 168.082031 195.859375 " clip-rule="nonzero"/></clipPath><clipPath id="896a845bb2"><path d="M 182.480469 186.363281 L 190.121094 181.320312 C 193.941406 178.800781 198.605469 177.902344 203.085938 178.824219 C 207.570312 179.742188 211.5 182.40625 214.019531 186.222656 L 246.746094 235.839844 C 249.261719 239.65625 250.164062 244.320312 249.242188 248.804688 C 248.324219 253.285156 245.660156 257.21875 241.84375 259.738281 L 234.199219 264.777344 C 230.382812 267.296875 225.71875 268.195312 221.234375 267.273438 C 216.753906 266.355469 212.820312 263.695312 210.304688 259.875 L 177.578125 210.257812 C 175.058594 206.441406 174.160156 201.777344 175.082031 197.296875 C 176 192.8125 178.660156 188.878906 182.480469 186.363281 Z M 182.480469 186.363281 " clip-rule="nonzero"/></clipPath><clipPath id="7edffbc838"><path d="M 147.875 132.199219 L 227.125 132.199219 L 227.125 211.449219 L 147.875 211.449219 Z M 147.875 132.199219 " clip-rule="nonzero"/></clipPath><clipPath id="fe5da70958"><path d="M 187.5 132.199219 C 165.617188 132.199219 147.875 149.941406 147.875 171.824219 C 147.875 193.710938 165.617188 211.449219 187.5 211.449219 C 209.382812 211.449219 227.125 193.710938 227.125 171.824219 C 227.125 149.941406 209.382812 132.199219 187.5 132.199219 Z M 187.5 132.199219 " clip-rule="nonzero"/></clipPath></defs><g clip-path="url(#035165db18)"><g clip-path="url(#028b059692)"><path fill="#f00b51" d="M 43.621094 27.945312 L 331.378906 27.945312 L 331.378906 315.703125 L 43.621094 315.703125 Z M 43.621094 27.945312 " fill-opacity="1" fill-rule="nonzero"/></g></g><g clip-path="url(#f30d42f297)"><g clip-path="url(#7fd2b2e62d)"><path fill="#ff5757" d="M 162.839844 46.796875 L 212.160156 46.796875 L 212.160156 161.617188 L 162.839844 161.617188 Z M 162.839844 46.796875 " fill-opacity="1" fill-rule="nonzero"/></g></g><g clip-path="url(#a0152099fd)"><g clip-path="url(#7789b549ff)"><g clip-path="url(#896a845bb2)"><path fill="#ff5757" d="M 168.082031 195.859375 L 204.523438 171.824219 L 256.257812 250.257812 L 219.8125 274.296875 Z M 168.082031 195.859375 " fill-opacity="1" fill-rule="nonzero"/></g></g></g><g clip-path="url(#7edffbc838)"><g clip-path="url(#fe5da70958)"><path fill="#ff5757" d="M 147.875 132.199219 L 227.125 132.199219 L 227.125 211.449219 L 147.875 211.449219 Z M 147.875 132.199219 " fill-opacity="1" fill-rule="nonzero"/></g></g></svg>