<svg xmlns="http://www.w3.org/2000/svg" xmlns:xlink="http://www.w3.org/1999/xlink" width="500" zoomAndPan="magnify" viewBox="0 0 375 374.999991" height="500" preserveAspectRatio="xMidYMid meet" version="1.0"><defs><clipPath id="92dc2cd9bd"><path d="M 77.03125 62.101562 L 148.207031 62.101562 L 148.207031 133.28125 L 77.03125 133.28125 Z M 77.03125 62.101562 " clip-rule="nonzero"/></clipPath><clipPath id="918b319ef8"><path d="M 112.621094 62.101562 C 92.964844 62.101562 77.03125 78.035156 77.03125 97.691406 C 77.03125 117.347656 92.964844 133.28125 112.621094 133.28125 C 132.273438 133.28125 148.207031 117.347656 148.207031 97.691406 C 148.207031 78.035156 132.273438 62.101562 112.621094 62.101562 Z M 112.621094 62.101562 " clip-rule="nonzero"/></clipPath><clipPath id="c254bc3463"><path d="M 57.863281 140.921875 L 167.511719 140.921875 L 167.511719 203.863281 L 57.863281 203.863281 Z M 57.863281 140.921875 " clip-rule="nonzero"/></clipPath><clipPath id="98c511dc68"><path d="M 75.113281 140.921875 L 150.125 140.921875 C 154.703125 140.921875 159.089844 142.742188 162.324219 145.976562 C 165.558594 149.210938 167.375 153.597656 167.375 158.171875 L 167.375 186.613281 C 167.375 191.1875 165.558594 195.574219 162.324219 198.808594 C 159.089844 202.042969 154.703125 203.863281 150.125 203.863281 L 75.113281 203.863281 C 70.539062 203.863281 66.148438 202.042969 62.914062 198.808594 C 59.679688 195.574219 57.863281 191.1875 57.863281 186.613281 L 57.863281 158.171875 C 57.863281 153.597656 59.679688 149.210938 62.914062 145.976562 C 66.148438 142.742188 70.539062 140.921875 75.113281 140.921875 Z M 75.113281 140.921875 " clip-rule="nonzero"/></clipPath><clipPath id="39db47f992"><path d="M 208.941406 109.773438 L 303.425781 109.773438 L 303.425781 204.257812 L 208.941406 204.257812 Z M 208.941406 109.773438 " clip-rule="nonzero"/></clipPath><clipPath id="360cb3ed9f"><path d="M 256.183594 109.773438 C 230.09375 109.773438 208.941406 130.925781 208.941406 157.015625 C 208.941406 183.105469 230.09375 204.257812 256.183594 204.257812 C 282.277344 204.257812 303.425781 183.105469 303.425781 157.015625 C 303.425781 130.925781 282.277344 109.773438 256.183594 109.773438 Z M 256.183594 109.773438 " clip-rule="nonzero"/></clipPath><clipPath id="e45db07c15"><path d="M 183.5 214.402344 L 329 214.402344 L 329 297.949219 L 183.5 297.949219 Z M 183.5 214.402344 " clip-rule="nonzero"/></clipPath><clipPath id="77ab0cb8cb"><path d="M 200.75 214.402344 L 311.621094 214.402344 C 321.148438 214.402344 328.871094 222.125 328.871094 231.652344 L 328.871094 280.699219 C 328.871094 290.226562 321.148438 297.949219 311.621094 297.949219 L 200.75 297.949219 C 191.222656 297.949219 183.5 290.226562 183.5 280.699219 L 183.5 231.652344 C 183.5 222.125 191.222656 214.402344 200.75 214.402344 Z M 200.75 214.402344 " clip-rule="nonzero"/></clipPath><clipPath id="2d9b837c1f"><path d="M 46.0625 214.402344 L 98.5 214.402344 L 98.5 266.839844 L 46.0625 266.839844 Z M 46.0625 214.402344 " clip-rule="nonzero"/></clipPath><clipPath id="5b11cc395e"><path d="M 72.28125 214.402344 C 57.800781 214.402344 46.0625 226.140625 46.0625 240.621094 C 46.0625 255.101562 57.800781 266.839844 72.28125 266.839844 C 86.761719 266.839844 98.5 255.101562 98.5 240.621094 C 98.5 226.140625 86.761719 214.402344 72.28125 214.402344 Z M 72.28125 214.402344 " clip-rule="nonzero"/></clipPath><clipPath id="c8f39e5087"><path d="M 31.941406 272.472656 L 112.71875 272.472656 L 112.71875 318.839844 L 31.941406 318.839844 Z M 31.941406 272.472656 " clip-rule="nonzero"/></clipPath><clipPath id="699d59515c"><path d="M 49.191406 272.472656 L 95.371094 272.472656 C 99.945312 272.472656 104.332031 274.289062 107.566406 277.523438 C 110.800781 280.757812 112.621094 285.148438 112.621094 289.722656 L 112.621094 301.589844 C 112.621094 306.164062 110.800781 310.550781 107.566406 313.785156 C 104.332031 317.019531 99.945312 318.839844 95.371094 318.839844 L 49.191406 318.839844 C 44.613281 318.839844 40.226562 317.019531 36.992188 313.785156 C 33.757812 310.550781 31.941406 306.164062 31.941406 301.589844 L 31.941406 289.722656 C 31.941406 285.148438 33.757812 280.757812 36.992188 277.523438 C 40.226562 274.289062 44.613281 272.472656 49.191406 272.472656 Z M 49.191406 272.472656 " clip-rule="nonzero"/></clipPath></defs><g clip-path="url(#92dc2cd9bd)"><g clip-path="url(#918b319ef8)"><path fill="#f00b51" d="M 77.03125 62.101562 L 148.207031 62.101562 L 148.207031 133.28125 L 77.03125 133.28125 Z M 77.03125 62.101562 " fill-opacity="1" fill-rule="nonzero"/></g></g><g clip-path="url(#c254bc3463)"><g clip-path="url(#98c511dc68)"><path fill="#f00b51" d="M 57.863281 140.921875 L 167.265625 140.921875 L 167.265625 203.863281 L 57.863281 203.863281 Z M 57.863281 140.921875 " fill-opacity="1" fill-rule="nonzero"/></g></g><g clip-path="url(#39db47f992)"><g clip-path="url(#360cb3ed9f)"><path fill="#f00b51" d="M 208.941406 109.773438 L 303.425781 109.773438 L 303.425781 204.257812 L 208.941406 204.257812 Z M 208.941406 109.773438 " fill-opacity="1" fill-rule="nonzero"/></g></g><g clip-path="url(#e45db07c15)"><g clip-path="url(#77ab0cb8cb)"><path fill="#f00b51" d="M 183.5 214.402344 L 328.722656 214.402344 L 328.722656 297.949219 L 183.5 297.949219 Z M 183.5 214.402344 " fill-opacity="1" fill-rule="nonzero"/></g></g><g clip-path="url(#2d9b837c1f)"><g clip-path="url(#5b11cc395e)"><path fill="#f00b51" d="M 46.0625 214.402344 L 98.5 214.402344 L 98.5 266.839844 L 46.0625 266.839844 Z M 46.0625 214.402344 " fill-opacity="1" fill-rule="nonzero"/></g></g><g clip-path="url(#c8f39e5087)"><g clip-path="url(#699d59515c)"><path fill="#f00b51" d="M 31.941406 272.472656 L 112.539062 272.472656 L 112.539062 318.839844 L 31.941406 318.839844 Z M 31.941406 272.472656 " fill-opacity="1" fill-rule="nonzero"/></g></g></svg>