<svg xmlns="http://www.w3.org/2000/svg" xmlns:xlink="http://www.w3.org/1999/xlink" width="500" zoomAndPan="magnify" viewBox="0 0 375 374.999991" height="500" preserveAspectRatio="xMidYMid meet" version="1.0"><defs><clipPath id="7729a93038"><path d="M 87.015625 139 L 285.53125 139 L 285.53125 337.5 L 87.015625 337.5 Z M 87.015625 139 " clip-rule="nonzero"/></clipPath><clipPath id="c240eebeef"><path d="M 105.039062 139.757812 L 268.28125 139.757812 C 272.855469 139.757812 277.246094 141.574219 280.480469 144.808594 C 283.714844 148.042969 285.53125 152.429688 285.53125 157.007812 L 285.53125 320.25 C 285.53125 324.824219 283.714844 329.210938 280.480469 332.449219 C 277.246094 335.683594 272.855469 337.5 268.28125 337.5 L 105.039062 337.5 C 100.464844 337.5 96.074219 335.683594 92.839844 332.449219 C 89.605469 329.210938 87.789062 324.824219 87.789062 320.25 L 87.789062 157.007812 C 87.789062 152.429688 89.605469 148.042969 92.839844 144.808594 C 96.074219 141.574219 100.464844 139.757812 105.039062 139.757812 Z M 105.039062 139.757812 " clip-rule="nonzero"/></clipPath><clipPath id="1de6a8c0bd"><path d="M 30.375 37.5 L 344.660156 37.5 L 344.660156 210.527344 L 30.375 210.527344 Z M 30.375 37.5 " clip-rule="nonzero"/></clipPath><clipPath id="082b7e3243"><path d="M 187.5 37.5 L 344.625 210.527344 L 30.375 210.527344 Z M 187.5 37.5 " clip-rule="nonzero"/></clipPath></defs><g clip-path="url(#7729a93038)"><g clip-path="url(#c240eebeef)"><path fill="#f00b51" d="M 87.789062 139.757812 L 285.53125 139.757812 L 285.53125 337.5 L 87.789062 337.5 Z M 87.789062 139.757812 " fill-opacity="1" fill-rule="nonzero"/></g></g><g clip-path="url(#1de6a8c0bd)"><g clip-path="url(#082b7e3243)"><path fill="#f00b51" d="M 30.375 37.5 L 344.660156 37.5 L 344.660156 210.527344 L 30.375 210.527344 Z M 30.375 37.5 " fill-opacity="1" fill-rule="nonzero"/></g></g></svg>