<svg xmlns="http://www.w3.org/2000/svg" xmlns:xlink="http://www.w3.org/1999/xlink" width="500" zoomAndPan="magnify" viewBox="0 0 375 374.999991" height="500" preserveAspectRatio="xMidYMid meet" version="1.0"><defs><clipPath id="fc12d953be"><path d="M 37.5 37.5 L 262.558594 37.5 L 262.558594 262.558594 L 37.5 262.558594 Z M 37.5 37.5 " clip-rule="nonzero"/></clipPath><clipPath id="0f69a189cf"><path d="M 150.03125 37.5 C 87.882812 37.5 37.5 87.882812 37.5 150.03125 C 37.5 212.179688 87.882812 262.558594 150.03125 262.558594 C 212.179688 262.558594 262.558594 212.179688 262.558594 150.03125 C 262.558594 87.882812 212.179688 37.5 150.03125 37.5 Z M 150.03125 37.5 " clip-rule="nonzero"/></clipPath><clipPath id="b7da58d4cf"><path d="M 232 232 L 331 232 L 331 331 L 232 331 Z M 232 232 " clip-rule="nonzero"/></clipPath><clipPath id="8725472327"><path d="M 257.949219 225.058594 L 337.605469 304.714844 L 304.714844 337.605469 L 225.058594 257.949219 Z M 257.949219 225.058594 " clip-rule="nonzero"/></clipPath><clipPath id="f624141783"><path d="M 270.148438 237.257812 L 325.300781 292.410156 C 328.535156 295.644531 330.355469 300.035156 330.355469 304.609375 C 330.355469 309.183594 328.535156 313.570312 325.300781 316.804688 L 316.804688 325.300781 C 313.570312 328.535156 309.183594 330.355469 304.609375 330.355469 C 300.035156 330.355469 295.644531 328.535156 292.410156 325.300781 L 237.257812 270.148438 C 234.019531 266.914062 232.203125 262.523438 232.203125 257.949219 C 232.203125 253.375 234.019531 248.988281 237.257812 245.753906 L 245.75 237.257812 C 248.988281 234.023438 253.375 232.203125 257.949219 232.203125 C 262.523438 232.203125 266.910156 234.023438 270.148438 237.257812 Z M 270.148438 237.257812 " clip-rule="nonzero"/></clipPath></defs><g clip-path="url(#fc12d953be)"><g clip-path="url(#0f69a189cf)"><path fill="#f00b51" d="M 37.5 37.5 L 262.558594 37.5 L 262.558594 262.558594 L 37.5 262.558594 Z M 37.5 37.5 " fill-opacity="1" fill-rule="nonzero"/></g></g><g clip-path="url(#b7da58d4cf)"><g clip-path="url(#8725472327)"><g clip-path="url(#f624141783)"><path fill="#f00b51" d="M 257.949219 225.058594 L 337.476562 304.589844 L 304.585938 337.480469 L 225.058594 257.949219 Z M 257.949219 225.058594 " fill-opacity="1" fill-rule="nonzero"/></g></g></g></svg>